<svg width="51" height="13" viewBox="0 0 51 13" fill="none" xmlns="http://www.w3.org/2000/svg">
<path d="M8.5 12H0.851562V10.6953L4.64062 6.5625C5.1875 5.95312 5.57552 5.44531 5.80469 5.03906C6.03906 4.6276 6.15625 4.21615 6.15625 3.80469C6.15625 3.26302 6.0026 2.82552 5.69531 2.49219C5.39323 2.15885 4.98438 1.99219 4.46875 1.99219C3.85417 1.99219 3.3776 2.17969 3.03906 2.55469C2.70052 2.92969 2.53125 3.44271 2.53125 4.09375H0.632812C0.632812 3.40104 0.789062 2.77865 1.10156 2.22656C1.41927 1.66927 1.86979 1.23698 2.45312 0.929688C3.04167 0.622396 3.71875 0.46875 4.48438 0.46875C5.58854 0.46875 6.45833 0.747396 7.09375 1.30469C7.73438 1.85677 8.05469 2.6224 8.05469 3.60156C8.05469 4.16927 7.89323 4.76562 7.57031 5.39062C7.2526 6.01042 6.72917 6.71615 6 7.50781L3.21875 10.4844H8.5V12ZM16.125 5.44531H17.2812C17.8646 5.4401 18.3255 5.28906 18.6641 4.99219C19.0078 4.69531 19.1797 4.26562 19.1797 3.70312C19.1797 3.16146 19.0365 2.74219 18.75 2.44531C18.4688 2.14323 18.0365 1.99219 17.4531 1.99219C16.9427 1.99219 16.5234 2.14062 16.1953 2.4375C15.8672 2.72917 15.7031 3.11198 15.7031 3.58594H13.8047C13.8047 3.0026 13.9583 2.47135 14.2656 1.99219C14.5781 1.51302 15.0104 1.14062 15.5625 0.875C16.1198 0.604167 16.7422 0.46875 17.4297 0.46875C18.5651 0.46875 19.4557 0.755208 20.1016 1.32812C20.7526 1.89583 21.0781 2.6875 21.0781 3.70312C21.0781 4.21354 20.9141 4.69531 20.5859 5.14844C20.263 5.59635 19.8438 5.9349 19.3281 6.16406C19.9531 6.3776 20.4271 6.71354 20.75 7.17188C21.0781 7.63021 21.2422 8.17708 21.2422 8.8125C21.2422 9.83333 20.8906 10.6458 20.1875 11.25C19.4896 11.8542 18.5703 12.1562 17.4297 12.1562C16.3359 12.1562 15.4401 11.8646 14.7422 11.2812C14.0443 10.6979 13.6953 9.92188 13.6953 8.95312H15.5938C15.5938 9.45312 15.7604 9.85938 16.0938 10.1719C16.4323 10.4844 16.8854 10.6406 17.4531 10.6406C18.0417 10.6406 18.5052 10.4844 18.8438 10.1719C19.1823 9.85938 19.3516 9.40625 19.3516 8.8125C19.3516 8.21354 19.1745 7.7526 18.8203 7.42969C18.4661 7.10677 17.9401 6.94531 17.2422 6.94531H16.125V5.44531ZM30.4375 7.21094C30.4375 8.84635 30.1302 10.0807 29.5156 10.9141C28.9062 11.7422 27.9766 12.1562 26.7266 12.1562C25.4974 12.1562 24.5703 11.7526 23.9453 10.9453C23.3255 10.1328 23.0078 8.93229 22.9922 7.34375V5.375C22.9922 3.73958 23.2969 2.51302 23.9062 1.69531C24.5208 0.877604 25.4557 0.46875 26.7109 0.46875C27.9557 0.46875 28.8828 0.867188 29.4922 1.66406C30.1068 2.46094 30.4219 3.65365 30.4375 5.24219V7.21094ZM28.5391 5.08594C28.5391 4.01823 28.3932 3.23698 28.1016 2.74219C27.8099 2.24219 27.3464 1.99219 26.7109 1.99219C26.0911 1.99219 25.6354 2.22917 25.3438 2.70312C25.0521 3.17188 24.8984 3.90625 24.8828 4.90625V7.48438C24.8828 8.54688 25.0312 9.33854 25.3281 9.85938C25.625 10.3802 26.0911 10.6406 26.7266 10.6406C27.3359 10.6406 27.7865 10.401 28.0781 9.92188C28.3698 9.4375 28.5234 8.68229 28.5391 7.65625V5.08594ZM39.5312 7.21094C39.5312 8.84635 39.224 10.0807 38.6094 10.9141C38 11.7422 37.0703 12.1562 35.8203 12.1562C34.5911 12.1562 33.6641 11.7526 33.0391 10.9453C32.4193 10.1328 32.1016 8.93229 32.0859 7.34375V5.375C32.0859 3.73958 32.3906 2.51302 33 1.69531C33.6146 0.877604 34.5495 0.46875 35.8047 0.46875C37.0495 0.46875 37.9766 0.867188 38.5859 1.66406C39.2005 2.46094 39.5156 3.65365 39.5312 5.24219V7.21094ZM37.6328 5.08594C37.6328 4.01823 37.487 3.23698 37.1953 2.74219C36.9036 2.24219 36.4401 1.99219 35.8047 1.99219C35.1849 1.99219 34.7292 2.22917 34.4375 2.70312C34.1458 3.17188 33.9922 3.90625 33.9766 4.90625V7.48438C33.9766 8.54688 34.125 9.33854 34.4219 9.85938C34.7188 10.3802 35.1849 10.6406 35.8203 10.6406C36.4297 10.6406 36.8802 10.401 37.1719 9.92188C37.4635 9.4375 37.6172 8.68229 37.6328 7.65625V5.08594ZM46.7578 10.1953H44.2422V12H42.2734V10.1953H40.6719V8.60938H42.2734V7.77344H40.6719V6.1875H42.2734V0.625H46.625C47.8802 0.625 48.8828 0.953125 49.6328 1.60938C50.3828 2.26042 50.7578 3.1276 50.7578 4.21094C50.7578 5.3151 50.401 6.18229 49.6875 6.8125C48.974 7.4375 47.9818 7.75781 46.7109 7.77344H44.2422V8.60938H46.7578V10.1953ZM44.2422 6.1875H46.5938C47.3021 6.1875 47.8438 6.02344 48.2188 5.69531C48.5938 5.36719 48.7812 4.8776 48.7812 4.22656C48.7812 3.64323 48.5964 3.16667 48.2266 2.79688C47.862 2.42708 47.3568 2.23438 46.7109 2.21875H44.2422V6.1875Z" fill="#414141"/>
</svg>
