<svg width="482" height="84" viewBox="0 0 482 84" fill="none" xmlns="http://www.w3.org/2000/svg">
<path d="M289 70.5L297.167 75.1667L305.333 70.5M290.167 67H304.167C304.811 67 305.333 67.5223 305.333 68.1667V79.8333C305.333 80.4777 304.811 81 304.167 81H290.167C289.522 81 289 80.4777 289 79.8333V68.1667C289 67.5223 289.522 67 290.167 67Z" stroke="black"/>
<path d="M318.416 70.6035L318.45 71.4238C318.993 70.7858 319.724 70.4668 320.645 70.4668C321.679 70.4668 322.383 70.8633 322.757 71.6562C323.003 71.3008 323.322 71.0137 323.714 70.7949C324.11 70.5762 324.577 70.4668 325.115 70.4668C326.738 70.4668 327.562 71.3258 327.59 73.0439V78H326.325V73.1191C326.325 72.5905 326.204 72.1963 325.963 71.9365C325.721 71.6722 325.316 71.54 324.746 71.54C324.277 71.54 323.887 71.6813 323.577 71.9639C323.267 72.2419 323.087 72.6178 323.037 73.0918V78H321.766V73.1533C321.766 72.0778 321.239 71.54 320.187 71.54C319.357 71.54 318.79 71.8932 318.484 72.5996V78H317.22V70.6035H318.416ZM332.573 78.1367C331.571 78.1367 330.755 77.8086 330.126 77.1523C329.497 76.4915 329.183 75.6097 329.183 74.5068V74.2744C329.183 73.5407 329.322 72.8867 329.6 72.3125C329.882 71.7337 330.274 71.2826 330.775 70.959C331.281 70.6309 331.828 70.4668 332.416 70.4668C333.378 70.4668 334.125 70.7835 334.658 71.417C335.191 72.0505 335.458 72.9574 335.458 74.1377V74.6641H330.447C330.465 75.3932 330.677 75.9834 331.083 76.4346C331.493 76.8812 332.013 77.1045 332.642 77.1045C333.088 77.1045 333.466 77.0133 333.776 76.8311C334.086 76.6488 334.357 76.4072 334.59 76.1064L335.362 76.708C334.743 77.6605 333.813 78.1367 332.573 78.1367ZM332.416 71.5059C331.906 71.5059 331.477 71.6927 331.131 72.0664C330.785 72.4355 330.57 72.9551 330.488 73.625H334.193V73.5293C334.157 72.8867 333.984 72.39 333.674 72.0391C333.364 71.6836 332.945 71.5059 332.416 71.5059ZM343.189 74.3838C343.189 75.514 342.93 76.4232 342.41 77.1113C341.891 77.7949 341.193 78.1367 340.318 78.1367C339.384 78.1367 338.662 77.8063 338.151 77.1455L338.09 78H336.928V67.5H338.192V71.417C338.703 70.7835 339.407 70.4668 340.305 70.4668C341.202 70.4668 341.907 70.8063 342.417 71.4854C342.932 72.1644 343.189 73.0941 343.189 74.2744V74.3838ZM341.925 74.2402C341.925 73.3789 341.758 72.7135 341.426 72.2441C341.093 71.7747 340.615 71.54 339.99 71.54C339.156 71.54 338.557 71.9274 338.192 72.7021V75.9014C338.58 76.6761 339.184 77.0635 340.004 77.0635C340.61 77.0635 341.082 76.8288 341.419 76.3594C341.756 75.89 341.925 75.1836 341.925 74.2402ZM347.858 78.1367C346.856 78.1367 346.04 77.8086 345.411 77.1523C344.782 76.4915 344.468 75.6097 344.468 74.5068V74.2744C344.468 73.5407 344.607 72.8867 344.885 72.3125C345.167 71.7337 345.559 71.2826 346.061 70.959C346.566 70.6309 347.113 70.4668 347.701 70.4668C348.663 70.4668 349.41 70.7835 349.943 71.417C350.477 72.0505 350.743 72.9574 350.743 74.1377V74.6641H345.732C345.751 75.3932 345.963 75.9834 346.368 76.4346C346.778 76.8812 347.298 77.1045 347.927 77.1045C348.373 77.1045 348.752 77.0133 349.062 76.8311C349.371 76.6488 349.643 76.4072 349.875 76.1064L350.647 76.708C350.028 77.6605 349.098 78.1367 347.858 78.1367ZM347.701 71.5059C347.191 71.5059 346.762 71.6927 346.416 72.0664C346.07 72.4355 345.855 72.9551 345.773 73.625H349.479V73.5293C349.442 72.8867 349.269 72.39 348.959 72.0391C348.649 71.6836 348.23 71.5059 347.701 71.5059ZM353.587 78H352.322V67.5H353.587V78ZM360.949 79.0322H354.688V78H360.949V79.0322ZM363.308 78H362.043V67.5H363.308V78ZM365.003 74.2334C365.003 73.5088 365.144 72.8571 365.427 72.2783C365.714 71.6995 366.11 71.2529 366.616 70.9385C367.127 70.624 367.708 70.4668 368.359 70.4668C369.367 70.4668 370.18 70.8154 370.8 71.5127C371.424 72.21 371.736 73.1374 371.736 74.2949V74.3838C371.736 75.1038 371.597 75.751 371.319 76.3252C371.046 76.8949 370.652 77.3392 370.137 77.6582C369.626 77.9772 369.038 78.1367 368.373 78.1367C367.37 78.1367 366.557 77.7881 365.933 77.0908C365.313 76.3936 365.003 75.4707 365.003 74.3223V74.2334ZM366.274 74.3838C366.274 75.2041 366.464 75.8626 366.842 76.3594C367.225 76.8561 367.735 77.1045 368.373 77.1045C369.016 77.1045 369.526 76.8538 369.904 76.3525C370.283 75.8467 370.472 75.1403 370.472 74.2334C370.472 73.4222 370.278 72.766 369.891 72.2646C369.508 71.7588 368.997 71.5059 368.359 71.5059C367.735 71.5059 367.231 71.7542 366.849 72.251C366.466 72.7477 366.274 73.4587 366.274 74.3838ZM373.944 78V71.5811H372.775V70.6035H373.944V69.8447C373.944 69.0518 374.156 68.4388 374.58 68.0059C375.004 67.5729 375.603 67.3564 376.378 67.3564C376.67 67.3564 376.959 67.3952 377.246 67.4727L377.178 68.498C376.964 68.457 376.736 68.4365 376.494 68.4365C376.084 68.4365 375.767 68.5573 375.544 68.7988C375.321 69.0358 375.209 69.3776 375.209 69.8242V70.6035H376.788V71.5811H375.209V78H373.944ZM379.905 68.8125V70.6035H381.286V71.5811H379.905V76.168C379.905 76.4642 379.967 76.6875 380.09 76.8379C380.213 76.9837 380.423 77.0566 380.719 77.0566C380.865 77.0566 381.065 77.0293 381.32 76.9746V78C380.988 78.0911 380.664 78.1367 380.35 78.1367C379.785 78.1367 379.358 77.9658 379.071 77.624C378.784 77.2822 378.641 76.7969 378.641 76.168V71.5811H377.294V70.6035H378.641V68.8125H379.905ZM388.102 79.0322H381.84V78H388.102V79.0322ZM393.652 78C393.579 77.8542 393.52 77.5944 393.475 77.2207C392.887 77.8314 392.185 78.1367 391.369 78.1367C390.64 78.1367 390.041 77.9316 389.571 77.5215C389.106 77.1068 388.874 76.5827 388.874 75.9492C388.874 75.179 389.166 74.582 389.749 74.1582C390.337 73.7298 391.162 73.5156 392.224 73.5156H393.454V72.9346C393.454 72.4925 393.322 72.1416 393.058 71.8818C392.793 71.6175 392.404 71.4854 391.889 71.4854C391.438 71.4854 391.059 71.5993 390.754 71.8271C390.449 72.055 390.296 72.3307 390.296 72.6543H389.024C389.024 72.2852 389.154 71.9297 389.414 71.5879C389.678 71.2415 390.034 70.9681 390.48 70.7676C390.932 70.5671 391.426 70.4668 391.964 70.4668C392.816 70.4668 393.484 70.681 393.967 71.1094C394.45 71.5332 394.701 72.1188 394.719 72.8662V76.2705C394.719 76.9495 394.805 77.4896 394.979 77.8906V78H393.652ZM391.554 77.0361C391.95 77.0361 392.326 76.9336 392.682 76.7285C393.037 76.5234 393.295 76.2568 393.454 75.9287V74.4111H392.463C390.913 74.4111 390.139 74.8646 390.139 75.7715C390.139 76.168 390.271 76.4779 390.535 76.7012C390.799 76.9245 391.139 77.0361 391.554 77.0361ZM397.897 70.6035L397.938 71.5332C398.504 70.8223 399.242 70.4668 400.153 70.4668C401.716 70.4668 402.505 71.3486 402.519 73.1123V78H401.254V73.1055C401.249 72.5723 401.126 72.1781 400.885 71.9229C400.648 71.6676 400.276 71.54 399.771 71.54C399.36 71.54 399 71.6494 398.69 71.8682C398.381 72.0869 398.139 72.374 397.966 72.7295V78H396.701V70.6035H397.897ZM408.992 78C408.919 77.8542 408.86 77.5944 408.814 77.2207C408.227 77.8314 407.525 78.1367 406.709 78.1367C405.98 78.1367 405.381 77.9316 404.911 77.5215C404.446 77.1068 404.214 76.5827 404.214 75.9492C404.214 75.179 404.506 74.582 405.089 74.1582C405.677 73.7298 406.502 73.5156 407.563 73.5156H408.794V72.9346C408.794 72.4925 408.662 72.1416 408.397 71.8818C408.133 71.6175 407.743 71.4854 407.229 71.4854C406.777 71.4854 406.399 71.5993 406.094 71.8271C405.788 72.055 405.636 72.3307 405.636 72.6543H404.364C404.364 72.2852 404.494 71.9297 404.754 71.5879C405.018 71.2415 405.374 70.9681 405.82 70.7676C406.271 70.5671 406.766 70.4668 407.304 70.4668C408.156 70.4668 408.824 70.681 409.307 71.1094C409.79 71.5332 410.04 72.1188 410.059 72.8662V76.2705C410.059 76.9495 410.145 77.4896 410.318 77.8906V78H408.992ZM406.894 77.0361C407.29 77.0361 407.666 76.9336 408.021 76.7285C408.377 76.5234 408.634 76.2568 408.794 75.9287V74.4111H407.803C406.253 74.4111 405.479 74.8646 405.479 75.7715C405.479 76.168 405.611 76.4779 405.875 76.7012C406.139 76.9245 406.479 77.0361 406.894 77.0361ZM418.289 74.3838C418.289 75.5094 418.032 76.4163 417.517 77.1045C417.002 77.7926 416.304 78.1367 415.425 78.1367C414.527 78.1367 413.821 77.8519 413.306 77.2822V80.8438H412.041V70.6035H413.196L413.258 71.4238C413.773 70.7858 414.488 70.4668 415.404 70.4668C416.293 70.4668 416.995 70.8018 417.51 71.4717C418.029 72.1416 418.289 73.0736 418.289 74.2676V74.3838ZM417.024 74.2402C417.024 73.4062 416.847 72.7477 416.491 72.2646C416.136 71.7816 415.648 71.54 415.028 71.54C414.263 71.54 413.688 71.8796 413.306 72.5586V76.0928C413.684 76.7673 414.263 77.1045 415.042 77.1045C415.648 77.1045 416.129 76.8652 416.484 76.3867C416.844 75.9036 417.024 75.1882 417.024 74.2402ZM424.469 78C424.396 77.8542 424.337 77.5944 424.291 77.2207C423.703 77.8314 423.001 78.1367 422.186 78.1367C421.456 78.1367 420.857 77.9316 420.388 77.5215C419.923 77.1068 419.69 76.5827 419.69 75.9492C419.69 75.179 419.982 74.582 420.565 74.1582C421.153 73.7298 421.978 73.5156 423.04 73.5156H424.271V72.9346C424.271 72.4925 424.138 72.1416 423.874 71.8818C423.61 71.6175 423.22 71.4854 422.705 71.4854C422.254 71.4854 421.876 71.5993 421.57 71.8271C421.265 72.055 421.112 72.3307 421.112 72.6543H419.841C419.841 72.2852 419.971 71.9297 420.23 71.5879C420.495 71.2415 420.85 70.9681 421.297 70.7676C421.748 70.5671 422.243 70.4668 422.78 70.4668C423.632 70.4668 424.3 70.681 424.783 71.1094C425.266 71.5332 425.517 72.1188 425.535 72.8662V76.2705C425.535 76.9495 425.622 77.4896 425.795 77.8906V78H424.469ZM422.37 77.0361C422.767 77.0361 423.143 76.9336 423.498 76.7285C423.854 76.5234 424.111 76.2568 424.271 75.9287V74.4111H423.279C421.73 74.4111 420.955 74.8646 420.955 75.7715C420.955 76.168 421.087 76.4779 421.352 76.7012C421.616 76.9245 421.955 77.0361 422.37 77.0361ZM438.441 74.5684C438.387 75.6712 438.113 76.5417 437.621 77.1797C437.129 77.8177 436.47 78.1367 435.646 78.1367C434.793 78.1367 434.246 77.7539 434.005 76.9883C433.759 77.3757 433.476 77.665 433.157 77.8564C432.843 78.0433 432.517 78.1367 432.18 78.1367C431.533 78.1367 431.043 77.8724 430.71 77.3438C430.377 76.8151 430.254 76.0837 430.341 75.1494C430.409 74.3975 430.58 73.7275 430.854 73.1396C431.132 72.5472 431.487 72.0824 431.92 71.7451C432.357 71.4079 432.815 71.2393 433.294 71.2393C433.663 71.2393 433.993 71.2894 434.285 71.3896C434.577 71.4854 434.905 71.6768 435.27 71.9639L434.914 75.751C434.827 76.8037 435.119 77.3301 435.789 77.3301C436.304 77.3301 436.721 77.0749 437.04 76.5645C437.359 76.054 437.532 75.3887 437.56 74.5684C437.646 72.7956 437.316 71.4443 436.568 70.5146C435.826 69.585 434.693 69.1201 433.171 69.1201C432.255 69.1201 431.441 69.348 430.73 69.8037C430.02 70.2549 429.459 70.9089 429.049 71.7656C428.639 72.6224 428.409 73.6113 428.358 74.7324C428.304 75.8626 428.44 76.8447 428.769 77.6787C429.097 78.5081 429.596 79.1416 430.266 79.5791C430.94 80.0212 431.754 80.2422 432.706 80.2422C433.116 80.2422 433.526 80.1921 433.937 80.0918C434.351 79.9915 434.695 79.8617 434.969 79.7021L435.222 80.4883C434.939 80.666 434.563 80.8118 434.094 80.9258C433.629 81.0397 433.157 81.0967 432.679 81.0967C431.539 81.0967 430.56 80.8392 429.739 80.3242C428.919 79.8138 428.304 79.0755 427.894 78.1094C427.488 77.1478 427.312 76.0221 427.367 74.7324C427.422 73.4792 427.702 72.3535 428.208 71.3555C428.714 70.3529 429.4 69.5804 430.266 69.0381C431.132 68.4912 432.109 68.2178 433.198 68.2178C434.333 68.2178 435.306 68.473 436.117 68.9834C436.928 69.4938 437.532 70.2298 437.929 71.1914C438.325 72.153 438.496 73.2786 438.441 74.5684ZM431.428 75.1494C431.364 75.7965 431.423 76.2933 431.605 76.6396C431.792 76.986 432.086 77.1592 432.487 77.1592C432.761 77.1592 433.023 77.043 433.273 76.8105C433.529 76.5781 433.738 76.2454 433.902 75.8125L433.909 75.751L434.224 72.3125C433.968 72.1803 433.695 72.1143 433.403 72.1143C432.87 72.1143 432.428 72.3854 432.077 72.9277C431.731 73.4701 431.514 74.2106 431.428 75.1494ZM441.285 70.6035L441.319 71.4238C441.862 70.7858 442.593 70.4668 443.514 70.4668C444.548 70.4668 445.252 70.8633 445.626 71.6562C445.872 71.3008 446.191 71.0137 446.583 70.7949C446.979 70.5762 447.447 70.4668 447.984 70.4668C449.607 70.4668 450.432 71.3258 450.459 73.0439V78H449.194V73.1191C449.194 72.5905 449.074 72.1963 448.832 71.9365C448.59 71.6722 448.185 71.54 447.615 71.54C447.146 71.54 446.756 71.6813 446.446 71.9639C446.136 72.2419 445.956 72.6178 445.906 73.0918V78H444.635V73.1533C444.635 72.0778 444.108 71.54 443.056 71.54C442.226 71.54 441.659 71.8932 441.354 72.5996V78H440.089V70.6035H441.285ZM456.939 78C456.867 77.8542 456.807 77.5944 456.762 77.2207C456.174 77.8314 455.472 78.1367 454.656 78.1367C453.927 78.1367 453.328 77.9316 452.858 77.5215C452.394 77.1068 452.161 76.5827 452.161 75.9492C452.161 75.179 452.453 74.582 453.036 74.1582C453.624 73.7298 454.449 73.5156 455.511 73.5156H456.741V72.9346C456.741 72.4925 456.609 72.1416 456.345 71.8818C456.08 71.6175 455.691 71.4854 455.176 71.4854C454.725 71.4854 454.346 71.5993 454.041 71.8271C453.736 72.055 453.583 72.3307 453.583 72.6543H452.312C452.312 72.2852 452.441 71.9297 452.701 71.5879C452.965 71.2415 453.321 70.9681 453.768 70.7676C454.219 70.5671 454.713 70.4668 455.251 70.4668C456.103 70.4668 456.771 70.681 457.254 71.1094C457.737 71.5332 457.988 72.1188 458.006 72.8662V76.2705C458.006 76.9495 458.092 77.4896 458.266 77.8906V78H456.939ZM454.841 77.0361C455.237 77.0361 455.613 76.9336 455.969 76.7285C456.324 76.5234 456.582 76.2568 456.741 75.9287V74.4111H455.75C454.201 74.4111 453.426 74.8646 453.426 75.7715C453.426 76.168 453.558 76.4779 453.822 76.7012C454.087 76.9245 454.426 77.0361 454.841 77.0361ZM461.362 78H460.098V70.6035H461.362V78ZM459.995 68.6416C459.995 68.4365 460.057 68.2633 460.18 68.1221C460.307 67.9808 460.494 67.9102 460.74 67.9102C460.986 67.9102 461.173 67.9808 461.301 68.1221C461.428 68.2633 461.492 68.4365 461.492 68.6416C461.492 68.8467 461.428 69.0176 461.301 69.1543C461.173 69.291 460.986 69.3594 460.74 69.3594C460.494 69.3594 460.307 69.291 460.18 69.1543C460.057 69.0176 459.995 68.8467 459.995 68.6416ZM464.767 78H463.502V67.5H464.767V78ZM466.824 77.3369C466.824 77.1182 466.888 76.9359 467.016 76.79C467.148 76.6442 467.344 76.5713 467.604 76.5713C467.863 76.5713 468.059 76.6442 468.191 76.79C468.328 76.9359 468.396 77.1182 468.396 77.3369C468.396 77.5465 468.328 77.722 468.191 77.8633C468.059 78.0046 467.863 78.0752 467.604 78.0752C467.344 78.0752 467.148 78.0046 467.016 77.8633C466.888 77.722 466.824 77.5465 466.824 77.3369ZM474.063 71.7383C473.872 71.7064 473.665 71.6904 473.441 71.6904C472.612 71.6904 472.049 72.0436 471.753 72.75V78H470.488V70.6035H471.719L471.739 71.458C472.154 70.7972 472.742 70.4668 473.503 70.4668C473.749 70.4668 473.936 70.4987 474.063 70.5625V71.7383ZM479.799 77.2686C479.307 77.8473 478.584 78.1367 477.632 78.1367C476.843 78.1367 476.242 77.9089 475.827 77.4531C475.417 76.9928 475.21 76.3138 475.205 75.416V70.6035H476.47V75.3818C476.47 76.5029 476.925 77.0635 477.837 77.0635C478.803 77.0635 479.446 76.7035 479.765 75.9834V70.6035H481.029V78H479.826L479.799 77.2686Z" fill="#414141"/>
<path d="M32.8457 72.6445C32.8457 73.1413 32.7135 73.5833 32.4492 73.9707C32.1895 74.3581 31.8363 74.6611 31.3896 74.8799C31.9092 75.1032 32.3193 75.429 32.6201 75.8574C32.9255 76.2858 33.0781 76.7712 33.0781 77.3135C33.0781 78.1748 32.7865 78.8607 32.2031 79.3711C31.6243 79.8815 30.861 80.1367 29.9131 80.1367C28.9561 80.1367 28.1882 79.8815 27.6094 79.3711C27.0352 78.8561 26.748 78.1702 26.748 77.3135C26.748 76.7757 26.8939 76.2904 27.1855 75.8574C27.4818 75.4245 27.8896 75.0964 28.4092 74.873C27.9671 74.6543 27.6185 74.3512 27.3633 73.9639C27.1081 73.5765 26.9805 73.1367 26.9805 72.6445C26.9805 71.806 27.2493 71.1406 27.7871 70.6484C28.3249 70.1562 29.0335 69.9102 29.9131 69.9102C30.7881 69.9102 31.4945 70.1562 32.0322 70.6484C32.5745 71.1406 32.8457 71.806 32.8457 72.6445ZM31.8135 77.2861C31.8135 76.7301 31.6357 76.2767 31.2803 75.9258C30.9294 75.5749 30.4691 75.3994 29.8994 75.3994C29.3298 75.3994 28.8717 75.5726 28.5254 75.9189C28.1836 76.2653 28.0127 76.721 28.0127 77.2861C28.0127 77.8512 28.179 78.2956 28.5117 78.6191C28.849 78.9427 29.3161 79.1045 29.9131 79.1045C30.5055 79.1045 30.9704 78.9427 31.3076 78.6191C31.6449 78.291 31.8135 77.8467 31.8135 77.2861ZM29.9131 70.9492C29.4163 70.9492 29.013 71.1042 28.7031 71.4141C28.3978 71.7194 28.2451 72.1364 28.2451 72.665C28.2451 73.1709 28.3955 73.5811 28.6963 73.8955C29.0016 74.2054 29.4072 74.3604 29.9131 74.3604C30.4189 74.3604 30.8223 74.2054 31.123 73.8955C31.4284 73.5811 31.5811 73.1709 31.5811 72.665C31.5811 72.1592 31.4238 71.7467 31.1094 71.4277C30.7949 71.1087 30.3962 70.9492 29.9131 70.9492ZM38.2256 75.96C38.2256 74.93 38.3623 73.9411 38.6357 72.9932C38.9137 72.0452 39.3262 71.1839 39.873 70.4092C40.4199 69.6344 40.9873 69.0876 41.5752 68.7686L41.835 69.6025C41.1696 70.113 40.6227 70.8923 40.1943 71.9404C39.7705 72.9886 39.5381 74.1621 39.4971 75.4609L39.4902 76.042C39.4902 77.8011 39.8115 79.3278 40.4541 80.6221C40.8415 81.3968 41.3018 82.0029 41.835 82.4404L41.5752 83.2129C40.9691 82.8757 40.3903 82.3105 39.8389 81.5176C38.7633 79.9681 38.2256 78.1156 38.2256 75.96ZM47.7754 75.625C47.5111 75.9395 47.1943 76.1924 46.8252 76.3838C46.4606 76.5752 46.0596 76.6709 45.6221 76.6709C45.0479 76.6709 44.5465 76.5296 44.1182 76.2471C43.6943 75.9645 43.3662 75.568 43.1338 75.0576C42.9014 74.5426 42.7852 73.9753 42.7852 73.3555C42.7852 72.6901 42.9105 72.0908 43.1611 71.5576C43.4163 71.0244 43.7764 70.6165 44.2412 70.334C44.7061 70.0514 45.2484 69.9102 45.8682 69.9102C46.8525 69.9102 47.6273 70.2793 48.1924 71.0176C48.762 71.7513 49.0469 72.7539 49.0469 74.0254V74.3945C49.0469 76.3314 48.6641 77.7464 47.8984 78.6396C47.1328 79.5283 45.9775 79.984 44.4326 80.0068H44.1865V78.9404H44.4531C45.4967 78.9222 46.2988 78.651 46.8594 78.127C47.4199 77.5983 47.7253 76.7643 47.7754 75.625ZM45.8271 75.625C46.251 75.625 46.6406 75.4951 46.9961 75.2354C47.3561 74.9756 47.6182 74.6543 47.7822 74.2715V73.7656C47.7822 72.9362 47.6022 72.2617 47.2422 71.7422C46.8822 71.2227 46.4264 70.9629 45.875 70.9629C45.319 70.9629 44.8724 71.1771 44.5352 71.6055C44.1979 72.0293 44.0293 72.5898 44.0293 73.2871C44.0293 73.9661 44.1911 74.5267 44.5146 74.9688C44.8428 75.4062 45.2803 75.625 45.8271 75.625ZM55.7529 70.04V71.1133H55.5205C54.5361 71.1315 53.7523 71.4232 53.1689 71.9883C52.5856 72.5534 52.2484 73.3486 52.1572 74.374C52.6813 73.7725 53.3968 73.4717 54.3037 73.4717C55.1696 73.4717 55.86 73.777 56.375 74.3877C56.8945 74.9984 57.1543 75.7868 57.1543 76.7529C57.1543 77.7783 56.874 78.5986 56.3135 79.2139C55.7575 79.8291 55.0101 80.1367 54.0713 80.1367C53.1188 80.1367 52.3464 79.7721 51.7539 79.043C51.1615 78.3092 50.8652 77.3659 50.8652 76.2129V75.7275C50.8652 73.8955 51.2549 72.4964 52.0342 71.5303C52.818 70.5596 53.9824 70.0628 55.5273 70.04H55.7529ZM54.0918 74.5244C53.6589 74.5244 53.2601 74.6543 52.8955 74.9141C52.5309 75.1738 52.278 75.4997 52.1367 75.8916V76.3564C52.1367 77.1768 52.3213 77.8376 52.6904 78.3389C53.0596 78.8402 53.5199 79.0908 54.0713 79.0908C54.641 79.0908 55.0876 78.8812 55.4111 78.4619C55.7393 78.0426 55.9033 77.4935 55.9033 76.8145C55.9033 76.1309 55.737 75.5794 55.4043 75.1602C55.0762 74.7363 54.6387 74.5244 54.0918 74.5244ZM63.9902 76.6572H65.3711V77.6895H63.9902V80H62.7188V77.6895H58.1865V76.9443L62.6436 70.0469H63.9902V76.6572ZM59.6221 76.6572H62.7188V71.7764L62.5684 72.0498L59.6221 76.6572ZM69.5615 76.0283C69.5615 77.0446 69.4271 78.0199 69.1582 78.9541C68.8939 79.8838 68.486 80.7428 67.9346 81.5312C67.3877 82.3197 66.8135 82.8802 66.2119 83.2129L65.9453 82.4404C66.6471 81.9027 67.21 81.0687 67.6338 79.9385C68.0622 78.8037 68.2809 77.5459 68.29 76.165V75.9463C68.29 74.9893 68.1898 74.1006 67.9893 73.2803C67.7887 72.4554 67.5085 71.7171 67.1484 71.0654C66.793 70.4137 66.3919 69.9056 65.9453 69.541L66.2119 68.7686C66.8135 69.1012 67.3854 69.6572 67.9277 70.4365C68.4746 71.2158 68.8825 72.0749 69.1514 73.0137C69.4248 73.9525 69.5615 74.9574 69.5615 76.0283ZM80.8887 72.6445C80.8887 73.1413 80.7565 73.5833 80.4922 73.9707C80.2324 74.3581 79.8792 74.6611 79.4326 74.8799C79.9521 75.1032 80.3623 75.429 80.6631 75.8574C80.9684 76.2858 81.1211 76.7712 81.1211 77.3135C81.1211 78.1748 80.8294 78.8607 80.2461 79.3711C79.6673 79.8815 78.904 80.1367 77.9561 80.1367C76.999 80.1367 76.2311 79.8815 75.6523 79.3711C75.0781 78.8561 74.791 78.1702 74.791 77.3135C74.791 76.7757 74.9368 76.2904 75.2285 75.8574C75.5247 75.4245 75.9326 75.0964 76.4521 74.873C76.0101 74.6543 75.6615 74.3512 75.4062 73.9639C75.151 73.5765 75.0234 73.1367 75.0234 72.6445C75.0234 71.806 75.2923 71.1406 75.8301 70.6484C76.3678 70.1562 77.0765 69.9102 77.9561 69.9102C78.8311 69.9102 79.5374 70.1562 80.0752 70.6484C80.6175 71.1406 80.8887 71.806 80.8887 72.6445ZM79.8564 77.2861C79.8564 76.7301 79.6787 76.2767 79.3232 75.9258C78.9723 75.5749 78.512 75.3994 77.9424 75.3994C77.3727 75.3994 76.9147 75.5726 76.5684 75.9189C76.2266 76.2653 76.0557 76.721 76.0557 77.2861C76.0557 77.8512 76.222 78.2956 76.5547 78.6191C76.8919 78.9427 77.359 79.1045 77.9561 79.1045C78.5485 79.1045 79.0133 78.9427 79.3506 78.6191C79.6878 78.291 79.8564 77.8467 79.8564 77.2861ZM77.9561 70.9492C77.4593 70.9492 77.056 71.1042 76.7461 71.4141C76.4408 71.7194 76.2881 72.1364 76.2881 72.665C76.2881 73.1709 76.4385 73.5811 76.7393 73.8955C77.0446 74.2054 77.4502 74.3604 77.9561 74.3604C78.4619 74.3604 78.8652 74.2054 79.166 73.8955C79.4714 73.5811 79.624 73.1709 79.624 72.665C79.624 72.1592 79.4668 71.7467 79.1523 71.4277C78.8379 71.1087 78.4391 70.9492 77.9561 70.9492ZM87.5605 75.625C87.2962 75.9395 86.9795 76.1924 86.6104 76.3838C86.2458 76.5752 85.8447 76.6709 85.4072 76.6709C84.833 76.6709 84.3317 76.5296 83.9033 76.2471C83.4795 75.9645 83.1514 75.568 82.9189 75.0576C82.6865 74.5426 82.5703 73.9753 82.5703 73.3555C82.5703 72.6901 82.6956 72.0908 82.9463 71.5576C83.2015 71.0244 83.5615 70.6165 84.0264 70.334C84.4912 70.0514 85.0335 69.9102 85.6533 69.9102C86.6377 69.9102 87.4124 70.2793 87.9775 71.0176C88.5472 71.7513 88.832 72.7539 88.832 74.0254V74.3945C88.832 76.3314 88.4492 77.7464 87.6836 78.6396C86.918 79.5283 85.7627 79.984 84.2178 80.0068H83.9717V78.9404H84.2383C85.2819 78.9222 86.084 78.651 86.6445 78.127C87.2051 77.5983 87.5104 76.7643 87.5605 75.625ZM85.6123 75.625C86.0361 75.625 86.4258 75.4951 86.7812 75.2354C87.1413 74.9756 87.4033 74.6543 87.5674 74.2715V73.7656C87.5674 72.9362 87.3874 72.2617 87.0273 71.7422C86.6673 71.2227 86.2116 70.9629 85.6602 70.9629C85.1042 70.9629 84.6576 71.1771 84.3203 71.6055C83.9831 72.0293 83.8145 72.5898 83.8145 73.2871C83.8145 73.9661 83.9762 74.5267 84.2998 74.9688C84.6279 75.4062 85.0654 75.625 85.6123 75.625ZM98.8945 75.625C98.6302 75.9395 98.3135 76.1924 97.9443 76.3838C97.5798 76.5752 97.1787 76.6709 96.7412 76.6709C96.167 76.6709 95.6657 76.5296 95.2373 76.2471C94.8135 75.9645 94.4854 75.568 94.2529 75.0576C94.0205 74.5426 93.9043 73.9753 93.9043 73.3555C93.9043 72.6901 94.0296 72.0908 94.2803 71.5576C94.5355 71.0244 94.8955 70.6165 95.3604 70.334C95.8252 70.0514 96.3675 69.9102 96.9873 69.9102C97.9717 69.9102 98.7464 70.2793 99.3115 71.0176C99.8812 71.7513 100.166 72.7539 100.166 74.0254V74.3945C100.166 76.3314 99.7832 77.7464 99.0176 78.6396C98.252 79.5283 97.0967 79.984 95.5518 80.0068H95.3057V78.9404H95.5723C96.6159 78.9222 97.418 78.651 97.9785 78.127C98.5391 77.5983 98.8444 76.7643 98.8945 75.625ZM96.9463 75.625C97.3701 75.625 97.7598 75.4951 98.1152 75.2354C98.4753 74.9756 98.7373 74.6543 98.9014 74.2715V73.7656C98.9014 72.9362 98.7214 72.2617 98.3613 71.7422C98.0013 71.2227 97.5456 70.9629 96.9941 70.9629C96.4382 70.9629 95.9915 71.1771 95.6543 71.6055C95.3171 72.0293 95.1484 72.5898 95.1484 73.2871C95.1484 73.9661 95.3102 74.5267 95.6338 74.9688C95.9619 75.4062 96.3994 75.625 96.9463 75.625ZM106.756 75.625C106.492 75.9395 106.175 76.1924 105.806 76.3838C105.441 76.5752 105.04 76.6709 104.603 76.6709C104.028 76.6709 103.527 76.5296 103.099 76.2471C102.675 75.9645 102.347 75.568 102.114 75.0576C101.882 74.5426 101.766 73.9753 101.766 73.3555C101.766 72.6901 101.891 72.0908 102.142 71.5576C102.397 71.0244 102.757 70.6165 103.222 70.334C103.687 70.0514 104.229 69.9102 104.849 69.9102C105.833 69.9102 106.608 70.2793 107.173 71.0176C107.743 71.7513 108.027 72.7539 108.027 74.0254V74.3945C108.027 76.3314 107.645 77.7464 106.879 78.6396C106.113 79.5283 104.958 79.984 103.413 80.0068H103.167V78.9404H103.434C104.477 78.9222 105.279 78.651 105.84 78.127C106.4 77.5983 106.706 76.7643 106.756 75.625ZM104.808 75.625C105.231 75.625 105.621 75.4951 105.977 75.2354C106.337 74.9756 106.599 74.6543 106.763 74.2715V73.7656C106.763 72.9362 106.583 72.2617 106.223 71.7422C105.863 71.2227 105.407 70.9629 104.855 70.9629C104.299 70.9629 103.853 71.1771 103.516 71.6055C103.178 72.0293 103.01 72.5898 103.01 73.2871C103.01 73.9661 103.172 74.5267 103.495 74.9688C103.823 75.4062 104.261 75.625 104.808 75.625ZM117.399 80H116.128V71.5713L113.578 72.5078V71.3594L117.201 69.999H117.399V80ZM125.261 80H123.989V71.5713L121.439 72.5078V71.3594L125.062 69.999H125.261V80ZM133.812 75.625C133.548 75.9395 133.231 76.1924 132.862 76.3838C132.498 76.5752 132.097 76.6709 131.659 76.6709C131.085 76.6709 130.584 76.5296 130.155 76.2471C129.731 75.9645 129.403 75.568 129.171 75.0576C128.938 74.5426 128.822 73.9753 128.822 73.3555C128.822 72.6901 128.948 72.0908 129.198 71.5576C129.453 71.0244 129.813 70.6165 130.278 70.334C130.743 70.0514 131.285 69.9102 131.905 69.9102C132.89 69.9102 133.664 70.2793 134.229 71.0176C134.799 71.7513 135.084 72.7539 135.084 74.0254V74.3945C135.084 76.3314 134.701 77.7464 133.936 78.6396C133.17 79.5283 132.015 79.984 130.47 80.0068H130.224V78.9404H130.49C131.534 78.9222 132.336 78.651 132.896 78.127C133.457 77.5983 133.762 76.7643 133.812 75.625ZM131.864 75.625C132.288 75.625 132.678 75.4951 133.033 75.2354C133.393 74.9756 133.655 74.6543 133.819 74.2715V73.7656C133.819 72.9362 133.639 72.2617 133.279 71.7422C132.919 71.2227 132.464 70.9629 131.912 70.9629C131.356 70.9629 130.91 71.1771 130.572 71.6055C130.235 72.0293 130.066 72.5898 130.066 73.2871C130.066 73.9661 130.228 74.5267 130.552 74.9688C130.88 75.4062 131.317 75.625 131.864 75.625Z" fill="#414141"/>
<path d="M193.92 79H192.795V70.4688H193.92V79ZM202.539 79H201.408L197.113 72.4258V79H195.982V70.4688H197.113L201.42 77.0723V70.4688H202.539V79ZM207.051 75.1973C206.086 74.9199 205.383 74.5801 204.941 74.1777C204.504 73.7715 204.285 73.2715 204.285 72.6777C204.285 72.0059 204.553 71.4512 205.088 71.0137C205.627 70.5723 206.326 70.3516 207.186 70.3516C207.771 70.3516 208.293 70.4648 208.75 70.6914C209.211 70.918 209.566 71.2305 209.816 71.6289C210.07 72.0273 210.197 72.4629 210.197 72.9355H209.066C209.066 72.4199 208.902 72.0156 208.574 71.7227C208.246 71.4258 207.783 71.2773 207.186 71.2773C206.631 71.2773 206.197 71.4004 205.885 71.6465C205.576 71.8887 205.422 72.2266 205.422 72.6602C205.422 73.0078 205.568 73.3027 205.861 73.5449C206.158 73.7832 206.66 74.002 207.367 74.2012C208.078 74.4004 208.633 74.6211 209.031 74.8633C209.434 75.1016 209.73 75.3809 209.922 75.7012C210.117 76.0215 210.215 76.3984 210.215 76.832C210.215 77.5234 209.945 78.0781 209.406 78.4961C208.867 78.9102 208.146 79.1172 207.244 79.1172C206.658 79.1172 206.111 79.0059 205.604 78.7832C205.096 78.5566 204.703 78.248 204.426 77.8574C204.152 77.4668 204.016 77.0234 204.016 76.5273H205.146C205.146 77.043 205.336 77.4512 205.715 77.752C206.098 78.0488 206.607 78.1973 207.244 78.1973C207.838 78.1973 208.293 78.0762 208.609 77.834C208.926 77.5918 209.084 77.2617 209.084 76.8438C209.084 76.4258 208.938 76.1035 208.645 75.877C208.352 75.6465 207.82 75.4199 207.051 75.1973ZM217.557 71.3945H214.814V79H213.695V71.3945H210.959V70.4688H217.557V71.3945ZM223.064 76.7734H219.49L218.688 79H217.527L220.785 70.4688H221.77L225.033 79H223.879L223.064 76.7734ZM219.83 75.8477H222.73L221.277 71.8574L219.83 75.8477ZM232.41 77.8809C232.121 78.2949 231.717 78.6055 231.197 78.8125C230.682 79.0156 230.08 79.1172 229.393 79.1172C228.697 79.1172 228.08 78.9551 227.541 78.6309C227.002 78.3027 226.584 77.8379 226.287 77.2363C225.994 76.6348 225.844 75.9375 225.836 75.1445V74.4004C225.836 73.1152 226.135 72.1191 226.732 71.4121C227.334 70.7051 228.178 70.3516 229.264 70.3516C230.154 70.3516 230.871 70.5801 231.414 71.0371C231.957 71.4902 232.289 72.1348 232.41 72.9707H231.285C231.074 71.8418 230.402 71.2773 229.27 71.2773C228.516 71.2773 227.943 71.543 227.553 72.0742C227.166 72.6016 226.971 73.3672 226.967 74.3711V75.0684C226.967 76.0254 227.186 76.7871 227.623 77.3535C228.061 77.916 228.652 78.1973 229.398 78.1973C229.82 78.1973 230.189 78.1504 230.506 78.0566C230.822 77.9629 231.084 77.8047 231.291 77.582V75.666H229.316V74.752H232.41V77.8809ZM237.42 75.5488H235.416V79H234.285V70.4688H237.109C238.07 70.4688 238.809 70.6875 239.324 71.125C239.844 71.5625 240.104 72.1992 240.104 73.0352C240.104 73.5664 239.959 74.0293 239.67 74.4238C239.385 74.8184 238.986 75.1133 238.475 75.3086L240.479 78.9297V79H239.271L237.42 75.5488ZM235.416 74.6289H237.145C237.703 74.6289 238.146 74.4844 238.475 74.1953C238.807 73.9062 238.973 73.5195 238.973 73.0352C238.973 72.5078 238.814 72.1035 238.498 71.8223C238.186 71.541 237.732 71.3984 237.139 71.3945H235.416V74.6289ZM246.396 76.7734H242.822L242.02 79H240.859L244.117 70.4688H245.102L248.365 79H247.211L246.396 76.7734ZM243.162 75.8477H246.062L244.609 71.8574L243.162 75.8477ZM250.967 70.4688L253.756 77.4297L256.545 70.4688H258.004V79H256.879V75.6777L256.984 72.0918L254.184 79H253.322L250.527 72.1094L250.639 75.6777V79H249.514V70.4688H250.967Z" fill="#414141"/>
<path d="M177.25 70.2143H178.321M170.286 67H176.714C179.081 67 181 68.9188 181 71.2857V77.7143C181 80.0812 179.081 82 176.714 82H170.286C167.919 82 166 80.0812 166 77.7143V71.2857C166 68.9188 167.919 67 170.286 67ZM173.5 77.7143C171.725 77.7143 170.286 76.2752 170.286 74.5C170.286 72.7248 171.725 71.2857 173.5 71.2857C175.275 71.2857 176.714 72.7248 176.714 74.5C176.714 76.2752 175.275 77.7143 173.5 77.7143Z" stroke="black"/>
<path d="M5.21922 68H3C1.89543 68 1 68.8954 1 70V72C1 77.5228 5.47715 82 11 82H13C14.1046 82 15 81.1046 15 80V78.618C15 78.2393 14.786 77.893 14.4472 77.7236L12.0313 76.5156C11.487 76.2435 10.8278 76.5165 10.6354 77.0938L10.3376 77.9871C10.1447 78.5658 9.55118 78.9102 8.95309 78.7906C6.55929 78.3119 4.68814 76.4407 4.20938 74.0469C4.08976 73.4488 4.43422 72.8553 5.01286 72.6624L6.12149 72.2928C6.61721 72.1276 6.90214 71.6086 6.7754 71.1016L6.18937 68.7575C6.07807 68.3123 5.67809 68 5.21922 68Z" stroke="black"/>
<path d="M317.288 7.64941H313.877V14H312.605V6.60352H317.288V7.64941ZM318.416 13.3369C318.416 13.1182 318.48 12.9359 318.607 12.79C318.74 12.6442 318.936 12.5713 319.195 12.5713C319.455 12.5713 319.651 12.6442 319.783 12.79C319.92 12.9359 319.988 13.1182 319.988 13.3369C319.988 13.5465 319.92 13.722 319.783 13.8633C319.651 14.0046 319.455 14.0752 319.195 14.0752C318.936 14.0752 318.74 14.0046 318.607 13.8633C318.48 13.722 318.416 13.5465 318.416 13.3369ZM331.247 11.4023H327.077L326.141 14H324.787L328.588 4.04688H329.736L333.544 14H332.197L331.247 11.4023ZM327.474 10.3223H330.857L329.162 5.66699L327.474 10.3223ZM340.729 14H339.464V10.8418H336.066V14H334.795V6.60352H336.066V9.80957H339.464V6.60352H340.729V14ZM347.332 14C347.259 13.8542 347.2 13.5944 347.154 13.2207C346.566 13.8314 345.865 14.1367 345.049 14.1367C344.32 14.1367 343.72 13.9316 343.251 13.5215C342.786 13.1068 342.554 12.5827 342.554 11.9492C342.554 11.179 342.845 10.582 343.429 10.1582C344.017 9.72982 344.841 9.51562 345.903 9.51562H347.134V8.93457C347.134 8.49251 347.002 8.1416 346.737 7.88184C346.473 7.61751 346.083 7.48535 345.568 7.48535C345.117 7.48535 344.739 7.59928 344.434 7.82715C344.128 8.05501 343.976 8.33073 343.976 8.6543H342.704C342.704 8.28516 342.834 7.92969 343.094 7.58789C343.358 7.24154 343.714 6.9681 344.16 6.76758C344.611 6.56706 345.106 6.4668 345.644 6.4668C346.496 6.4668 347.163 6.68099 347.646 7.10938C348.13 7.5332 348.38 8.11882 348.398 8.86621V12.2705C348.398 12.9495 348.485 13.4896 348.658 13.8906V14H347.332ZM345.233 13.0361C345.63 13.0361 346.006 12.9336 346.361 12.7285C346.717 12.5234 346.974 12.2568 347.134 11.9287V10.4111H346.143C344.593 10.4111 343.818 10.8646 343.818 11.7715C343.818 12.168 343.951 12.4779 344.215 12.7012C344.479 12.9245 344.819 13.0361 345.233 13.0361ZM356.431 14H355.166V7.64941H351.762V14H350.49V6.60352H356.431V14ZM363.027 14C362.954 13.8542 362.895 13.5944 362.85 13.2207C362.262 13.8314 361.56 14.1367 360.744 14.1367C360.015 14.1367 359.416 13.9316 358.946 13.5215C358.481 13.1068 358.249 12.5827 358.249 11.9492C358.249 11.179 358.541 10.582 359.124 10.1582C359.712 9.72982 360.537 9.51562 361.599 9.51562H362.829V8.93457C362.829 8.49251 362.697 8.1416 362.433 7.88184C362.168 7.61751 361.779 7.48535 361.264 7.48535C360.812 7.48535 360.434 7.59928 360.129 7.82715C359.824 8.05501 359.671 8.33073 359.671 8.6543H358.399C358.399 8.28516 358.529 7.92969 358.789 7.58789C359.053 7.24154 359.409 6.9681 359.855 6.76758C360.307 6.56706 360.801 6.4668 361.339 6.4668C362.191 6.4668 362.859 6.68099 363.342 7.10938C363.825 7.5332 364.076 8.11882 364.094 8.86621V12.2705C364.094 12.9495 364.18 13.4896 364.354 13.8906V14H363.027ZM360.929 13.0361C361.325 13.0361 361.701 12.9336 362.057 12.7285C362.412 12.5234 362.67 12.2568 362.829 11.9287V10.4111H361.838C360.288 10.4111 359.514 10.8646 359.514 11.7715C359.514 12.168 359.646 12.4779 359.91 12.7012C360.174 12.9245 360.514 13.0361 360.929 13.0361ZM366.035 15.9824L365.317 15.4902C365.746 14.8932 365.969 14.278 365.987 13.6445V12.5029H367.225V13.4941C367.225 13.9544 367.111 14.4147 366.883 14.875C366.66 15.3353 366.377 15.7044 366.035 15.9824ZM377.991 11.4023H373.821L372.885 14H371.531L375.332 4.04688H376.48L380.288 14H378.941L377.991 11.4023ZM374.218 10.3223H377.602L375.906 5.66699L374.218 10.3223ZM387.473 14H386.208V10.8418H382.811V14H381.539V6.60352H382.811V9.80957H386.208V6.60352H387.473V14ZM394.076 14C394.003 13.8542 393.944 13.5944 393.898 13.2207C393.311 13.8314 392.609 14.1367 391.793 14.1367C391.064 14.1367 390.465 13.9316 389.995 13.5215C389.53 13.1068 389.298 12.5827 389.298 11.9492C389.298 11.179 389.59 10.582 390.173 10.1582C390.761 9.72982 391.586 9.51562 392.647 9.51562H393.878V8.93457C393.878 8.49251 393.746 8.1416 393.481 7.88184C393.217 7.61751 392.827 7.48535 392.312 7.48535C391.861 7.48535 391.483 7.59928 391.178 7.82715C390.872 8.05501 390.72 8.33073 390.72 8.6543H389.448C389.448 8.28516 389.578 7.92969 389.838 7.58789C390.102 7.24154 390.458 6.9681 390.904 6.76758C391.355 6.56706 391.85 6.4668 392.388 6.4668C393.24 6.4668 393.908 6.68099 394.391 7.10938C394.874 7.5332 395.124 8.11882 395.143 8.86621V12.2705C395.143 12.9495 395.229 13.4896 395.402 13.8906V14H394.076ZM391.978 13.0361C392.374 13.0361 392.75 12.9336 393.105 12.7285C393.461 12.5234 393.718 12.2568 393.878 11.9287V10.4111H392.887C391.337 10.4111 390.562 10.8646 390.562 11.7715C390.562 12.168 390.695 12.4779 390.959 12.7012C391.223 12.9245 391.563 13.0361 391.978 13.0361ZM403.175 14H401.91V7.64941H398.506V14H397.234V6.60352H403.175V14ZM408.172 13.1045C408.623 13.1045 409.017 12.9678 409.354 12.6943C409.692 12.4209 409.879 12.0791 409.915 11.6689H411.111C411.089 12.0928 410.943 12.4961 410.674 12.8789C410.405 13.2617 410.045 13.5671 409.594 13.7949C409.147 14.0228 408.673 14.1367 408.172 14.1367C407.165 14.1367 406.363 13.8018 405.766 13.1318C405.173 12.4574 404.877 11.5368 404.877 10.3701V10.1582C404.877 9.43815 405.009 8.79785 405.273 8.2373C405.538 7.67676 405.916 7.24154 406.408 6.93164C406.905 6.62174 407.491 6.4668 408.165 6.4668C408.994 6.4668 409.683 6.71517 410.229 7.21191C410.781 7.70866 411.075 8.35352 411.111 9.14648H409.915C409.879 8.66797 409.696 8.27604 409.368 7.9707C409.045 7.66081 408.644 7.50586 408.165 7.50586C407.522 7.50586 407.023 7.73828 406.668 8.20312C406.317 8.66341 406.142 9.33105 406.142 10.2061V10.4453C406.142 11.2975 406.317 11.9538 406.668 12.4141C407.019 12.8743 407.52 13.1045 408.172 13.1045ZM414.837 10.8486H413.914V14H412.643V6.60352H413.914V9.73438H414.741L417.229 6.60352H418.761L415.835 10.1582L419.007 14H417.4L414.837 10.8486ZM419.608 10.2334C419.608 9.50879 419.75 8.8571 420.032 8.27832C420.319 7.69954 420.716 7.25293 421.222 6.93848C421.732 6.62402 422.313 6.4668 422.965 6.4668C423.972 6.4668 424.785 6.81543 425.405 7.5127C426.03 8.20996 426.342 9.13737 426.342 10.2949V10.3838C426.342 11.1038 426.203 11.751 425.925 12.3252C425.651 12.8949 425.257 13.3392 424.742 13.6582C424.232 13.9772 423.644 14.1367 422.979 14.1367C421.976 14.1367 421.162 13.7881 420.538 13.0908C419.918 12.3936 419.608 11.4707 419.608 10.3223V10.2334ZM420.88 10.3838C420.88 11.2041 421.069 11.8626 421.447 12.3594C421.83 12.8561 422.34 13.1045 422.979 13.1045C423.621 13.1045 424.132 12.8538 424.51 12.3525C424.888 11.8467 425.077 11.1403 425.077 10.2334C425.077 9.4222 424.883 8.76595 424.496 8.26465C424.113 7.75879 423.603 7.50586 422.965 7.50586C422.34 7.50586 421.837 7.75423 421.454 8.25098C421.071 8.74772 420.88 9.45866 420.88 10.3838ZM430.997 14.1367C429.994 14.1367 429.179 13.8086 428.55 13.1523C427.921 12.4915 427.606 11.6097 427.606 10.5068V10.2744C427.606 9.54069 427.745 8.88672 428.023 8.3125C428.306 7.73372 428.698 7.28255 429.199 6.95898C429.705 6.63086 430.252 6.4668 430.84 6.4668C431.801 6.4668 432.549 6.78353 433.082 7.41699C433.615 8.05046 433.882 8.95736 433.882 10.1377V10.6641H428.871C428.889 11.3932 429.101 11.9834 429.507 12.4346C429.917 12.8812 430.437 13.1045 431.065 13.1045C431.512 13.1045 431.89 13.0133 432.2 12.8311C432.51 12.6488 432.781 12.4072 433.014 12.1064L433.786 12.708C433.166 13.6605 432.237 14.1367 430.997 14.1367ZM430.84 7.50586C430.329 7.50586 429.901 7.69271 429.555 8.06641C429.208 8.43555 428.994 8.95508 428.912 9.625H432.617V9.5293C432.581 8.88672 432.408 8.38997 432.098 8.03906C431.788 7.68359 431.368 7.50586 430.84 7.50586ZM440.205 6.60352V12.9678H442.912V6.60352H444.177V12.9678H446.877V6.60352H448.148V14H438.934V6.60352H440.205ZM449.81 10.2334C449.81 9.50879 449.951 8.8571 450.233 8.27832C450.521 7.69954 450.917 7.25293 451.423 6.93848C451.933 6.62402 452.514 6.4668 453.166 6.4668C454.173 6.4668 454.987 6.81543 455.606 7.5127C456.231 8.20996 456.543 9.13737 456.543 10.2949V10.3838C456.543 11.1038 456.404 11.751 456.126 12.3252C455.853 12.8949 455.458 13.3392 454.943 13.6582C454.433 13.9772 453.845 14.1367 453.18 14.1367C452.177 14.1367 451.364 13.7881 450.739 13.0908C450.119 12.3936 449.81 11.4707 449.81 10.3223V10.2334ZM451.081 10.3838C451.081 11.2041 451.27 11.8626 451.648 12.3594C452.031 12.8561 452.542 13.1045 453.18 13.1045C453.822 13.1045 454.333 12.8538 454.711 12.3525C455.089 11.8467 455.278 11.1403 455.278 10.2334C455.278 9.4222 455.085 8.76595 454.697 8.26465C454.314 7.75879 453.804 7.50586 453.166 7.50586C452.542 7.50586 452.038 7.75423 451.655 8.25098C451.272 8.74772 451.081 9.45866 451.081 10.3838ZM461.096 13.1045C461.547 13.1045 461.941 12.9678 462.278 12.6943C462.616 12.4209 462.802 12.0791 462.839 11.6689H464.035C464.012 12.0928 463.867 12.4961 463.598 12.8789C463.329 13.2617 462.969 13.5671 462.518 13.7949C462.071 14.0228 461.597 14.1367 461.096 14.1367C460.089 14.1367 459.286 13.8018 458.689 13.1318C458.097 12.4574 457.801 11.5368 457.801 10.3701V10.1582C457.801 9.43815 457.933 8.79785 458.197 8.2373C458.462 7.67676 458.84 7.24154 459.332 6.93164C459.829 6.62174 460.414 6.4668 461.089 6.4668C461.918 6.4668 462.606 6.71517 463.153 7.21191C463.705 7.70866 463.999 8.35352 464.035 9.14648H462.839C462.802 8.66797 462.62 8.27604 462.292 7.9707C461.968 7.66081 461.567 7.50586 461.089 7.50586C460.446 7.50586 459.947 7.73828 459.592 8.20312C459.241 8.66341 459.065 9.33105 459.065 10.2061V10.4453C459.065 11.2975 459.241 11.9538 459.592 12.4141C459.943 12.8743 460.444 13.1045 461.096 13.1045ZM468.424 13.1045C468.875 13.1045 469.269 12.9678 469.606 12.6943C469.944 12.4209 470.131 12.0791 470.167 11.6689H471.363C471.34 12.0928 471.195 12.4961 470.926 12.8789C470.657 13.2617 470.297 13.5671 469.846 13.7949C469.399 14.0228 468.925 14.1367 468.424 14.1367C467.417 14.1367 466.615 13.8018 466.018 13.1318C465.425 12.4574 465.129 11.5368 465.129 10.3701V10.1582C465.129 9.43815 465.261 8.79785 465.525 8.2373C465.79 7.67676 466.168 7.24154 466.66 6.93164C467.157 6.62174 467.743 6.4668 468.417 6.4668C469.246 6.4668 469.935 6.71517 470.481 7.21191C471.033 7.70866 471.327 8.35352 471.363 9.14648H470.167C470.131 8.66797 469.948 8.27604 469.62 7.9707C469.297 7.66081 468.896 7.50586 468.417 7.50586C467.774 7.50586 467.275 7.73828 466.92 8.20312C466.569 8.66341 466.394 9.33105 466.394 10.2061V10.4453C466.394 11.2975 466.569 11.9538 466.92 12.4141C467.271 12.8743 467.772 13.1045 468.424 13.1045ZM475.854 14.1367C474.852 14.1367 474.036 13.8086 473.407 13.1523C472.778 12.4915 472.464 11.6097 472.464 10.5068V10.2744C472.464 9.54069 472.603 8.88672 472.881 8.3125C473.163 7.73372 473.555 7.28255 474.057 6.95898C474.562 6.63086 475.109 6.4668 475.697 6.4668C476.659 6.4668 477.406 6.78353 477.939 7.41699C478.473 8.05046 478.739 8.95736 478.739 10.1377V10.6641H473.729C473.747 11.3932 473.959 11.9834 474.364 12.4346C474.774 12.8812 475.294 13.1045 475.923 13.1045C476.369 13.1045 476.748 13.0133 477.058 12.8311C477.368 12.6488 477.639 12.4072 477.871 12.1064L478.644 12.708C478.024 13.6605 477.094 14.1367 475.854 14.1367ZM475.697 7.50586C475.187 7.50586 474.758 7.69271 474.412 8.06641C474.066 8.43555 473.852 8.95508 473.77 9.625H477.475V9.5293C477.438 8.88672 477.265 8.38997 476.955 8.03906C476.645 7.68359 476.226 7.50586 475.697 7.50586ZM480.168 15.9824L479.45 15.4902C479.879 14.8932 480.102 14.278 480.12 13.6445V12.5029H481.357V13.4941C481.357 13.9544 481.243 14.4147 481.016 14.875C480.792 15.3353 480.51 15.7044 480.168 15.9824ZM349.027 26.4082H349.978C350.575 26.3991 351.044 26.2419 351.386 25.9365C351.728 25.6312 351.898 25.2188 351.898 24.6992C351.898 23.5326 351.317 22.9492 350.155 22.9492C349.608 22.9492 349.171 23.1064 348.843 23.4209C348.519 23.7308 348.357 24.1432 348.357 24.6582H347.093C347.093 23.8698 347.38 23.2158 347.954 22.6963C348.533 22.1722 349.267 21.9102 350.155 21.9102C351.094 21.9102 351.83 22.1585 352.363 22.6553C352.896 23.152 353.163 23.8424 353.163 24.7266C353.163 25.1595 353.022 25.5788 352.739 25.9844C352.461 26.39 352.081 26.693 351.598 26.8936C352.145 27.0667 352.566 27.3538 352.862 27.7549C353.163 28.1559 353.313 28.6458 353.313 29.2246C353.313 30.1178 353.022 30.8265 352.438 31.3506C351.855 31.8747 351.096 32.1367 350.162 32.1367C349.228 32.1367 348.467 31.8838 347.879 31.3779C347.296 30.8721 347.004 30.2044 347.004 29.375H348.275C348.275 29.8991 348.446 30.3184 348.788 30.6328C349.13 30.9473 349.588 31.1045 350.162 31.1045C350.773 31.1045 351.24 30.945 351.563 30.626C351.887 30.307 352.049 29.849 352.049 29.252C352.049 28.6732 351.871 28.2288 351.516 27.9189C351.16 27.609 350.647 27.4495 349.978 27.4404H349.027V26.4082ZM361.291 27.7549C361.291 29.236 361.038 30.3366 360.532 31.0566C360.026 31.7767 359.236 32.1367 358.16 32.1367C357.098 32.1367 356.312 31.7858 355.802 31.084C355.291 30.3776 355.027 29.3249 355.009 27.9258V26.2373C355.009 24.7744 355.262 23.6875 355.768 22.9766C356.273 22.2656 357.066 21.9102 358.146 21.9102C359.217 21.9102 360.006 22.2542 360.512 22.9424C361.018 23.626 361.277 24.6833 361.291 26.1143V27.7549ZM360.026 26.0254C360.026 24.9544 359.876 24.1751 359.575 23.6875C359.274 23.1953 358.798 22.9492 358.146 22.9492C357.499 22.9492 357.028 23.193 356.731 23.6807C356.435 24.1683 356.283 24.918 356.273 25.9297V27.9531C356.273 29.0286 356.428 29.8239 356.738 30.3389C357.053 30.8493 357.527 31.1045 358.16 31.1045C358.785 31.1045 359.247 30.863 359.548 30.3799C359.853 29.8968 360.013 29.1357 360.026 28.0967V26.0254ZM373.705 27.4609H372.639V32H371.326V27.4609H370.198L367.382 32H365.741L369.091 26.75L366.001 22.0469H367.553L370.198 26.3672H371.326V22.0469H372.639V26.3672H373.719L376.364 22.0469H377.909L374.819 26.7432L378.169 32H376.535L373.705 27.4609ZM379.481 32.8545H378.395L382.551 22.0469H383.631L379.481 32.8545ZM387.78 27.5293H386.57V32H385.258V22.0469H386.57V26.4355H387.596L391.075 22.0469H392.709L388.908 26.873L392.989 32H391.383L387.78 27.5293ZM404.877 22.0469V32H403.558V27.8779C403.079 28.0146 402.644 28.1104 402.252 28.165C401.86 28.2152 401.413 28.2402 400.912 28.2402C399.777 28.2402 398.934 27.9941 398.383 27.502C397.831 27.0098 397.549 26.2555 397.535 25.2393V22.0469H398.854V25.2051C398.859 25.8978 399.016 26.3968 399.326 26.7021C399.641 27.0075 400.169 27.1602 400.912 27.1602C401.778 27.1602 402.66 27.0371 403.558 26.791V22.0469H404.877ZM410.12 32.1367C409.118 32.1367 408.302 31.8086 407.673 31.1523C407.044 30.4915 406.729 29.6097 406.729 28.5068V28.2744C406.729 27.5407 406.868 26.8867 407.146 26.3125C407.429 25.7337 407.821 25.2826 408.322 24.959C408.828 24.6309 409.375 24.4668 409.963 24.4668C410.924 24.4668 411.672 24.7835 412.205 25.417C412.738 26.0505 413.005 26.9574 413.005 28.1377V28.6641H407.994C408.012 29.3932 408.224 29.9834 408.63 30.4346C409.04 30.8812 409.56 31.1045 410.188 31.1045C410.635 31.1045 411.013 31.0133 411.323 30.8311C411.633 30.6488 411.904 30.4072 412.137 30.1064L412.909 30.708C412.289 31.6605 411.36 32.1367 410.12 32.1367ZM409.963 25.5059C409.452 25.5059 409.024 25.6927 408.678 26.0664C408.331 26.4355 408.117 26.9551 408.035 27.625H411.74V27.5293C411.704 26.8867 411.531 26.39 411.221 26.0391C410.911 25.6836 410.492 25.5059 409.963 25.5059ZM420.723 28.3838C420.723 29.5094 420.465 30.4163 419.95 31.1045C419.435 31.7926 418.738 32.1367 417.858 32.1367C416.961 32.1367 416.254 31.8519 415.739 31.2822V34.8438H414.475V24.6035H415.63L415.691 25.4238C416.206 24.7858 416.922 24.4668 417.838 24.4668C418.727 24.4668 419.428 24.8018 419.943 25.4717C420.463 26.1416 420.723 27.0736 420.723 28.2676V28.3838ZM419.458 28.2402C419.458 27.4062 419.28 26.7477 418.925 26.2646C418.569 25.7816 418.082 25.54 417.462 25.54C416.696 25.54 416.122 25.8796 415.739 26.5586V30.0928C416.118 30.7673 416.696 31.1045 417.476 31.1045C418.082 31.1045 418.562 30.8652 418.918 30.3867C419.278 29.9036 419.458 29.1882 419.458 28.2402ZM428.379 32H427.114V28.8418H423.717V32H422.445V24.6035H423.717V27.8096H427.114V24.6035H428.379V32ZM430.081 28.2334C430.081 27.5088 430.222 26.8571 430.505 26.2783C430.792 25.6995 431.188 25.2529 431.694 24.9385C432.205 24.624 432.786 24.4668 433.438 24.4668C434.445 24.4668 435.258 24.8154 435.878 25.5127C436.502 26.21 436.814 27.1374 436.814 28.2949V28.3838C436.814 29.1038 436.675 29.751 436.397 30.3252C436.124 30.8949 435.73 31.3392 435.215 31.6582C434.704 31.9772 434.117 32.1367 433.451 32.1367C432.449 32.1367 431.635 31.7881 431.011 31.0908C430.391 30.3936 430.081 29.4707 430.081 28.3223V28.2334ZM431.353 28.3838C431.353 29.2041 431.542 29.8626 431.92 30.3594C432.303 30.8561 432.813 31.1045 433.451 31.1045C434.094 31.1045 434.604 30.8538 434.982 30.3525C435.361 29.8467 435.55 29.1403 435.55 28.2334C435.55 27.4222 435.356 26.766 434.969 26.2646C434.586 25.7588 434.076 25.5059 433.438 25.5059C432.813 25.5059 432.31 25.7542 431.927 26.251C431.544 26.7477 431.353 27.4587 431.353 28.3838ZM441.47 32.1367C440.467 32.1367 439.651 31.8086 439.022 31.1523C438.394 30.4915 438.079 29.6097 438.079 28.5068V28.2744C438.079 27.5407 438.218 26.8867 438.496 26.3125C438.779 25.7337 439.171 25.2826 439.672 24.959C440.178 24.6309 440.725 24.4668 441.312 24.4668C442.274 24.4668 443.021 24.7835 443.555 25.417C444.088 26.0505 444.354 26.9574 444.354 28.1377V28.6641H439.344C439.362 29.3932 439.574 29.9834 439.979 30.4346C440.39 30.8812 440.909 31.1045 441.538 31.1045C441.985 31.1045 442.363 31.0133 442.673 30.8311C442.983 30.6488 443.254 30.4072 443.486 30.1064L444.259 30.708C443.639 31.6605 442.709 32.1367 441.47 32.1367ZM441.312 25.5059C440.802 25.5059 440.374 25.6927 440.027 26.0664C439.681 26.4355 439.467 26.9551 439.385 27.625H443.09V27.5293C443.053 26.8867 442.88 26.39 442.57 26.0391C442.26 25.6836 441.841 25.5059 441.312 25.5059ZM453.556 30.3252L456.071 24.6035H457.65V32H456.386V26.6201L453.993 32H453.118L450.678 26.5039V32H449.413V24.6035H451.054L453.556 30.3252ZM459.353 28.2334C459.353 27.5088 459.494 26.8571 459.776 26.2783C460.063 25.6995 460.46 25.2529 460.966 24.9385C461.476 24.624 462.057 24.4668 462.709 24.4668C463.716 24.4668 464.53 24.8154 465.149 25.5127C465.774 26.21 466.086 27.1374 466.086 28.2949V28.3838C466.086 29.1038 465.947 29.751 465.669 30.3252C465.396 30.8949 465.001 31.3392 464.486 31.6582C463.976 31.9772 463.388 32.1367 462.723 32.1367C461.72 32.1367 460.907 31.7881 460.282 31.0908C459.662 30.3936 459.353 29.4707 459.353 28.3223V28.2334ZM460.624 28.3838C460.624 29.2041 460.813 29.8626 461.191 30.3594C461.574 30.8561 462.085 31.1045 462.723 31.1045C463.365 31.1045 463.876 30.8538 464.254 30.3525C464.632 29.8467 464.821 29.1403 464.821 28.2334C464.821 27.4222 464.628 26.766 464.24 26.2646C463.857 25.7588 463.347 25.5059 462.709 25.5059C462.085 25.5059 461.581 25.7542 461.198 26.251C460.815 26.7477 460.624 27.4587 460.624 28.3838ZM473.92 28.3838C473.92 29.5094 473.662 30.4163 473.147 31.1045C472.632 31.7926 471.935 32.1367 471.056 32.1367C470.158 32.1367 469.451 31.8519 468.937 31.2822V34.8438H467.672V24.6035H468.827L468.889 25.4238C469.404 24.7858 470.119 24.4668 471.035 24.4668C471.924 24.4668 472.626 24.8018 473.141 25.4717C473.66 26.1416 473.92 27.0736 473.92 28.2676V28.3838ZM472.655 28.2402C472.655 27.4062 472.478 26.7477 472.122 26.2646C471.767 25.7816 471.279 25.54 470.659 25.54C469.894 25.54 469.319 25.8796 468.937 26.5586V30.0928C469.315 30.7673 469.894 31.1045 470.673 31.1045C471.279 31.1045 471.76 30.8652 472.115 30.3867C472.475 29.9036 472.655 29.1882 472.655 28.2402ZM478.603 32.1367C477.6 32.1367 476.784 31.8086 476.155 31.1523C475.526 30.4915 475.212 29.6097 475.212 28.5068V28.2744C475.212 27.5407 475.351 26.8867 475.629 26.3125C475.911 25.7337 476.303 25.2826 476.805 24.959C477.311 24.6309 477.857 24.4668 478.445 24.4668C479.407 24.4668 480.154 24.7835 480.688 25.417C481.221 26.0505 481.487 26.9574 481.487 28.1377V28.6641H476.477C476.495 29.3932 476.707 29.9834 477.112 30.4346C477.522 30.8812 478.042 31.1045 478.671 31.1045C479.118 31.1045 479.496 31.0133 479.806 30.8311C480.116 30.6488 480.387 30.4072 480.619 30.1064L481.392 30.708C480.772 31.6605 479.842 32.1367 478.603 32.1367ZM478.445 25.5059C477.935 25.5059 477.507 25.6927 477.16 26.0664C476.814 26.4355 476.6 26.9551 476.518 27.625H480.223V27.5293C480.186 26.8867 480.013 26.39 479.703 26.0391C479.393 25.6836 478.974 25.5059 478.445 25.5059Z" fill="#414141"/>
</svg>
