<svg width="193" height="52" viewBox="0 0 193 52" fill="none" xmlns="http://www.w3.org/2000/svg">
<path d="M1.62158 24.6016V30.3101H3.82324V24.6016H4.6626V30.3101H6.85107V24.6016H7.69482V31H0.773438V24.6016H1.62158ZM13.2495 24.6016H14.0933V31H13.2495V26.0693L10.0986 31H9.25049V24.6016H10.0986V29.5322L13.2495 24.6016ZM16.4751 28.4951V31H15.6313V24.6016H17.9912C18.6914 24.6016 19.2393 24.7803 19.6348 25.1377C20.0332 25.4951 20.2324 25.9683 20.2324 26.5571C20.2324 27.1782 20.0376 27.6572 19.6479 27.9941C19.2612 28.3281 18.7061 28.4951 17.9824 28.4951H16.4751ZM16.4751 27.8052H17.9912C18.4424 27.8052 18.7881 27.6997 19.0283 27.4888C19.2686 27.2749 19.3887 26.9673 19.3887 26.5659C19.3887 26.1851 19.2686 25.8804 19.0283 25.6519C18.7881 25.4233 18.4585 25.3047 18.0396 25.2959H16.4751V27.8052ZM25.3433 24.6016H26.187V31H25.3433V26.0693L22.1924 31H21.3442V24.6016H22.1924V29.5322L25.3433 24.6016ZM32.6426 31H31.7944V28.0425H28.5688V31H27.7251V24.6016H28.5688V27.3525H31.7944V24.6016H32.6426V31ZM37.7534 29.3301H35.0728L34.4707 31H33.6006L36.0439 24.6016H36.7822L39.23 31H38.3643L37.7534 29.3301ZM35.3276 28.6357H37.5029L36.4131 25.6431L35.3276 28.6357Z" fill="#C4C4C4"/>
<path d="M55.5215 42.0723L57.4551 40.1035L55.5332 38.1406L56.2305 37.4199L58.1582 39.3828L60.0859 37.4199L60.7832 38.1406L58.8613 40.1035L60.7949 42.0723L60.0977 42.793L58.1582 40.8184L56.2188 42.793L55.5215 42.0723Z" fill="#414141"/>
<path d="M134.521 42.0723L136.455 40.1035L134.533 38.1406L135.23 37.4199L137.158 39.3828L139.086 37.4199L139.783 38.1406L137.861 40.1035L139.795 42.0723L139.098 42.793L137.158 40.8184L135.219 42.793L134.521 42.0723Z" fill="#414141"/>
<path d="M3.96387 47.8511H4.85156V48.5146H3.96387V50H3.14648V48.5146H0.23291V48.0356L3.09814 43.6016H3.96387V47.8511ZM1.15576 47.8511H3.14648V44.7134L3.0498 44.8892L1.15576 47.8511ZM6.76758 46.4053H7.37842C7.76221 46.3994 8.06396 46.2983 8.28369 46.1021C8.50342 45.9058 8.61328 45.6406 8.61328 45.3066C8.61328 44.5566 8.23975 44.1816 7.49268 44.1816C7.14111 44.1816 6.85986 44.2827 6.64893 44.4849C6.44092 44.6841 6.33691 44.9492 6.33691 45.2803H5.52393C5.52393 44.7734 5.7085 44.353 6.07764 44.019C6.44971 43.6821 6.92139 43.5137 7.49268 43.5137C8.09619 43.5137 8.56934 43.6733 8.91211 43.9927C9.25488 44.312 9.42627 44.7559 9.42627 45.3242C9.42627 45.6025 9.33545 45.8721 9.15381 46.1328C8.9751 46.3936 8.73047 46.5884 8.41992 46.7173C8.77148 46.8286 9.04248 47.0132 9.23291 47.271C9.42627 47.5288 9.52295 47.8438 9.52295 48.2158C9.52295 48.79 9.33545 49.2456 8.96045 49.5825C8.58545 49.9194 8.09766 50.0879 7.49707 50.0879C6.89648 50.0879 6.40723 49.9253 6.0293 49.6001C5.6543 49.2749 5.4668 48.8457 5.4668 48.3125H6.28418C6.28418 48.6494 6.39404 48.9189 6.61377 49.1211C6.8335 49.3232 7.12793 49.4243 7.49707 49.4243C7.88965 49.4243 8.18994 49.3218 8.39795 49.1167C8.60596 48.9116 8.70996 48.6172 8.70996 48.2334C8.70996 47.8613 8.5957 47.5757 8.36719 47.3765C8.13867 47.1772 7.80908 47.0747 7.37842 47.0688H6.76758V46.4053ZM17.7891 47.9697C17.71 48.6465 17.4595 49.1694 17.0376 49.5386C16.6187 49.9048 16.0605 50.0879 15.3633 50.0879C14.6074 50.0879 14.001 49.8169 13.5439 49.2749C13.0898 48.7329 12.8628 48.0078 12.8628 47.0996V46.4844C12.8628 45.8896 12.9683 45.3667 13.1792 44.9155C13.3931 44.4644 13.6948 44.1187 14.0845 43.8784C14.4741 43.6353 14.9253 43.5137 15.438 43.5137C16.1177 43.5137 16.6626 43.7041 17.0728 44.085C17.4829 44.4629 17.7217 44.9873 17.7891 45.6582H16.9409C16.8677 45.1484 16.708 44.7793 16.4619 44.5508C16.2188 44.3223 15.8774 44.208 15.438 44.208C14.8989 44.208 14.4756 44.4072 14.168 44.8057C13.8633 45.2041 13.7109 45.771 13.7109 46.5063V47.126C13.7109 47.8203 13.856 48.3726 14.146 48.7827C14.436 49.1929 14.8418 49.3979 15.3633 49.3979C15.832 49.3979 16.1909 49.2925 16.4399 49.0815C16.6919 48.8677 16.8589 48.4971 16.9409 47.9697H17.7891ZM20.0347 43.6016L22.1265 48.8223L24.2183 43.6016H25.3125V50H24.4688V47.5083L24.5479 44.8188L22.4473 50H21.8013L19.7051 44.832L19.7886 47.5083V50H18.9448V43.6016H20.0347Z" fill="#414141"/>
<path d="M80.9639 47.8511H81.8516V48.5146H80.9639V50H80.1465V48.5146H77.2329V48.0356L80.0981 43.6016H80.9639V47.8511ZM78.1558 47.8511H80.1465V44.7134L80.0498 44.8892L78.1558 47.8511ZM83.7676 46.4053H84.3784C84.7622 46.3994 85.064 46.2983 85.2837 46.1021C85.5034 45.9058 85.6133 45.6406 85.6133 45.3066C85.6133 44.5566 85.2397 44.1816 84.4927 44.1816C84.1411 44.1816 83.8599 44.2827 83.6489 44.4849C83.4409 44.6841 83.3369 44.9492 83.3369 45.2803H82.5239C82.5239 44.7734 82.7085 44.353 83.0776 44.019C83.4497 43.6821 83.9214 43.5137 84.4927 43.5137C85.0962 43.5137 85.5693 43.6733 85.9121 43.9927C86.2549 44.312 86.4263 44.7559 86.4263 45.3242C86.4263 45.6025 86.3354 45.8721 86.1538 46.1328C85.9751 46.3936 85.7305 46.5884 85.4199 46.7173C85.7715 46.8286 86.0425 47.0132 86.2329 47.271C86.4263 47.5288 86.5229 47.8438 86.5229 48.2158C86.5229 48.79 86.3354 49.2456 85.9604 49.5825C85.5854 49.9194 85.0977 50.0879 84.4971 50.0879C83.8965 50.0879 83.4072 49.9253 83.0293 49.6001C82.6543 49.2749 82.4668 48.8457 82.4668 48.3125H83.2842C83.2842 48.6494 83.394 48.9189 83.6138 49.1211C83.8335 49.3232 84.1279 49.4243 84.4971 49.4243C84.8896 49.4243 85.1899 49.3218 85.3979 49.1167C85.606 48.9116 85.71 48.6172 85.71 48.2334C85.71 47.8613 85.5957 47.5757 85.3672 47.3765C85.1387 47.1772 84.8091 47.0747 84.3784 47.0688H83.7676V46.4053ZM94.7891 47.9697C94.71 48.6465 94.4595 49.1694 94.0376 49.5386C93.6187 49.9048 93.0605 50.0879 92.3633 50.0879C91.6074 50.0879 91.001 49.8169 90.5439 49.2749C90.0898 48.7329 89.8628 48.0078 89.8628 47.0996V46.4844C89.8628 45.8896 89.9683 45.3667 90.1792 44.9155C90.3931 44.4644 90.6948 44.1187 91.0845 43.8784C91.4741 43.6353 91.9253 43.5137 92.438 43.5137C93.1177 43.5137 93.6626 43.7041 94.0728 44.085C94.4829 44.4629 94.7217 44.9873 94.7891 45.6582H93.9409C93.8677 45.1484 93.708 44.7793 93.4619 44.5508C93.2188 44.3223 92.8774 44.208 92.438 44.208C91.8989 44.208 91.4756 44.4072 91.168 44.8057C90.8633 45.2041 90.7109 45.771 90.7109 46.5063V47.126C90.7109 47.8203 90.856 48.3726 91.146 48.7827C91.436 49.1929 91.8418 49.3979 92.3633 49.3979C92.832 49.3979 93.1909 49.2925 93.4399 49.0815C93.6919 48.8677 93.8589 48.4971 93.9409 47.9697H94.7891ZM97.0347 43.6016L99.1265 48.8223L101.218 43.6016H102.312V50H101.469V47.5083L101.548 44.8188L99.4473 50H98.8013L96.7051 44.832L96.7886 47.5083V50H95.9448V43.6016H97.0347Z" fill="#414141"/>
<path d="M160.663 44.0586L158.013 50H157.16L159.801 44.2695H156.338V43.6016H160.663V44.0586ZM165.716 44.0586L163.066 50H162.214L164.855 44.2695H161.392V43.6016H165.716V44.0586ZM173.789 47.9697C173.71 48.6465 173.459 49.1694 173.038 49.5386C172.619 49.9048 172.061 50.0879 171.363 50.0879C170.607 50.0879 170.001 49.8169 169.544 49.2749C169.09 48.7329 168.863 48.0078 168.863 47.0996V46.4844C168.863 45.8896 168.968 45.3667 169.179 44.9155C169.393 44.4644 169.695 44.1187 170.084 43.8784C170.474 43.6353 170.925 43.5137 171.438 43.5137C172.118 43.5137 172.663 43.7041 173.073 44.085C173.483 44.4629 173.722 44.9873 173.789 45.6582H172.941C172.868 45.1484 172.708 44.7793 172.462 44.5508C172.219 44.3223 171.877 44.208 171.438 44.208C170.899 44.208 170.476 44.4072 170.168 44.8057C169.863 45.2041 169.711 45.771 169.711 46.5063V47.126C169.711 47.8203 169.856 48.3726 170.146 48.7827C170.436 49.1929 170.842 49.3979 171.363 49.3979C171.832 49.3979 172.191 49.2925 172.44 49.0815C172.692 48.8677 172.859 48.4971 172.941 47.9697H173.789ZM176.035 43.6016L178.126 48.8223L180.218 43.6016H181.312V50H180.469V47.5083L180.548 44.8188L178.447 50H177.801L175.705 44.832L175.789 47.5083V50H174.945V43.6016H176.035Z" fill="#414141"/>
<path d="M81.7109 25.2959H78.626V31H77.7778V24.6016H81.7109V25.2959ZM87.1074 24.6016V31H86.2637V25.2959H83.9697L83.8555 27.8315C83.8115 28.6812 83.7236 29.3198 83.5918 29.7476C83.4629 30.1753 83.2725 30.4902 83.0205 30.6924C82.7686 30.8916 82.4316 30.9941 82.0098 31H81.7329V30.3101L81.9087 30.3013C82.1812 30.2808 82.3906 30.1929 82.5371 30.0376C82.6836 29.8794 82.7949 29.6289 82.8711 29.2861C82.9473 28.9434 83.0015 28.416 83.0337 27.7041L83.1655 24.6016H87.1074ZM90.8384 28.3149L92.3105 24.6016H93.2905L91.0273 29.9321C90.875 30.272 90.7329 30.5137 90.6011 30.6572C90.4692 30.7979 90.314 30.9062 90.1353 30.9824C89.9595 31.0557 89.7383 31.0923 89.4717 31.0923C89.2402 31.0923 89.0923 31.0791 89.0278 31.0527L89.0542 30.3848L89.4541 30.4023C89.7617 30.4023 89.9902 30.2544 90.1396 29.9585L90.2495 29.73L90.4165 29.3389L88.2368 24.6016H89.1816L90.8384 28.3149ZM98.2036 25.2959H95.1187V27.2119H96.7095C97.3774 27.2207 97.8989 27.3921 98.2739 27.7261C98.6489 28.0601 98.8364 28.5142 98.8364 29.0884C98.8364 29.6655 98.6475 30.1255 98.2695 30.4683C97.8916 30.811 97.376 30.9883 96.7227 31H94.2705V24.6016H98.2036V25.2959ZM95.1187 27.9062V30.3101H96.6611C97.0801 30.3101 97.4053 30.1987 97.6367 29.9761C97.8711 29.7534 97.9883 29.4546 97.9883 29.0796C97.9883 28.7192 97.8755 28.4351 97.6499 28.2271C97.4272 28.019 97.1094 27.9121 96.6963 27.9062H95.1187ZM104.013 24.6016H104.857V31H104.013V26.0693L100.862 31H100.014V24.6016H100.862V29.5322L104.013 24.6016ZM111.312 31H110.464V28.0425H107.239V31H106.395V24.6016H107.239V27.3525H110.464V24.6016H111.312V31ZM116.423 29.3301H113.743L113.141 31H112.271L114.714 24.6016H115.452L117.9 31H117.034L116.423 29.3301ZM113.998 28.6357H116.173L115.083 25.6431L113.998 28.6357Z" fill="#C4C4C4"/>
<path d="M156.743 31V24.6016H158.834C159.529 24.6016 160.05 24.7451 160.399 25.0322C160.75 25.3193 160.926 25.7441 160.926 26.3066C160.926 26.6055 160.841 26.8706 160.671 27.1021C160.501 27.3306 160.27 27.5078 159.977 27.6338C160.323 27.7305 160.595 27.915 160.794 28.1875C160.997 28.457 161.098 28.7793 161.098 29.1543C161.098 29.7285 160.912 30.1797 160.54 30.5078C160.167 30.8359 159.642 31 158.962 31H156.743ZM157.586 28.0073V30.3101H158.979C159.372 30.3101 159.681 30.209 159.907 30.0068C160.135 29.8018 160.25 29.5205 160.25 29.1631C160.25 28.3926 159.831 28.0073 158.993 28.0073H157.586ZM157.586 27.3306H158.861C159.23 27.3306 159.524 27.2383 159.744 27.0537C159.967 26.8691 160.078 26.6187 160.078 26.3022C160.078 25.9507 159.976 25.6958 159.771 25.5376C159.565 25.3765 159.253 25.2959 158.834 25.2959H157.586V27.3306ZM163.233 27.2119H164.824C165.492 27.2207 166.014 27.3921 166.389 27.7261C166.764 28.0601 166.951 28.5142 166.951 29.0884C166.951 29.6655 166.762 30.1255 166.384 30.4683C166.006 30.811 165.491 30.9883 164.837 31H162.39V24.6016H163.233V27.2119ZM163.233 27.9062V30.3101H164.776C165.195 30.3101 165.52 30.1987 165.751 29.9761C165.986 29.7534 166.103 29.4546 166.103 29.0796C166.103 28.7192 165.99 28.4351 165.765 28.2271C165.542 28.019 165.224 27.9121 164.811 27.9062H163.233ZM168.568 31H167.725V24.6016H168.568V31ZM174.844 28.9697C174.765 29.6465 174.514 30.1694 174.092 30.5386C173.673 30.9048 173.115 31.0879 172.418 31.0879C171.662 31.0879 171.056 30.8169 170.599 30.2749C170.145 29.7329 169.917 29.0078 169.917 28.0996V27.4844C169.917 26.8896 170.023 26.3667 170.234 25.9155C170.448 25.4644 170.75 25.1187 171.139 24.8784C171.529 24.6353 171.98 24.5137 172.493 24.5137C173.172 24.5137 173.717 24.7041 174.127 25.085C174.538 25.4629 174.776 25.9873 174.844 26.6582H173.996C173.922 26.1484 173.763 25.7793 173.517 25.5508C173.273 25.3223 172.932 25.208 172.493 25.208C171.954 25.208 171.53 25.4072 171.223 25.8057C170.918 26.2041 170.766 26.771 170.766 27.5063V28.126C170.766 28.8203 170.911 29.3726 171.201 29.7827C171.491 30.1929 171.896 30.3979 172.418 30.3979C172.887 30.3979 173.246 30.2925 173.495 30.0815C173.747 29.8677 173.914 29.4971 173.996 28.9697H174.844ZM180.921 28.0073C180.921 28.6343 180.816 29.1821 180.605 29.6509C180.394 30.1167 180.095 30.4727 179.708 30.7188C179.322 30.9648 178.871 31.0879 178.355 31.0879C177.851 31.0879 177.404 30.9648 177.015 30.7188C176.625 30.4697 176.322 30.1167 176.105 29.6597C175.891 29.1997 175.781 28.668 175.775 28.0645V27.603C175.775 26.9878 175.882 26.4443 176.096 25.9727C176.31 25.501 176.612 25.1406 177.001 24.8916C177.394 24.6396 177.842 24.5137 178.346 24.5137C178.859 24.5137 179.31 24.6382 179.7 24.8872C180.092 25.1333 180.394 25.4922 180.605 25.9639C180.816 26.4326 180.921 26.979 180.921 27.603V28.0073ZM180.082 27.5942C180.082 26.8354 179.93 26.2539 179.625 25.8496C179.32 25.4424 178.894 25.2388 178.346 25.2388C177.813 25.2388 177.393 25.4424 177.085 25.8496C176.78 26.2539 176.624 26.8164 176.615 27.5371V28.0073C176.615 28.7427 176.769 29.3213 177.076 29.7432C177.387 30.1621 177.813 30.3716 178.355 30.3716C178.9 30.3716 179.322 30.1738 179.621 29.7783C179.919 29.3799 180.073 28.8101 180.082 28.0688V27.5942ZM186.485 25.2959H184.428V31H183.589V25.2959H181.537V24.6016H186.485V25.2959ZM190.616 29.3301H187.935L187.333 31H186.463L188.906 24.6016H189.645L192.092 31H191.227L190.616 29.3301ZM188.19 28.6357H190.365L189.275 25.6431L188.19 28.6357Z" fill="#C4C4C4"/>
<path d="M2.11523 7.66016V11H0.990234V2.46875H4.13672C5.07031 2.46875 5.80078 2.70703 6.32812 3.18359C6.85938 3.66016 7.125 4.29102 7.125 5.07617C7.125 5.9043 6.86523 6.54297 6.3457 6.99219C5.83008 7.4375 5.08984 7.66016 4.125 7.66016H2.11523ZM2.11523 6.74023H4.13672C4.73828 6.74023 5.19922 6.59961 5.51953 6.31836C5.83984 6.0332 6 5.62305 6 5.08789C6 4.58008 5.83984 4.17383 5.51953 3.86914C5.19922 3.56445 4.75977 3.40625 4.20117 3.39453H2.11523V6.74023ZM12.2344 11C12.1719 10.875 12.1211 10.6523 12.082 10.332C11.5781 10.8555 10.9766 11.1172 10.2773 11.1172C9.65234 11.1172 9.13867 10.9414 8.73633 10.5898C8.33789 10.2344 8.13867 9.78516 8.13867 9.24219C8.13867 8.58203 8.38867 8.07031 8.88867 7.70703C9.39258 7.33984 10.0996 7.15625 11.0098 7.15625H12.0645V6.6582C12.0645 6.2793 11.9512 5.97852 11.7246 5.75586C11.498 5.5293 11.1641 5.41602 10.7227 5.41602C10.3359 5.41602 10.0117 5.51367 9.75 5.70898C9.48828 5.9043 9.35742 6.14062 9.35742 6.41797H8.26758C8.26758 6.10156 8.37891 5.79688 8.60156 5.50391C8.82812 5.20703 9.13281 4.97266 9.51562 4.80078C9.90234 4.62891 10.3262 4.54297 10.7871 4.54297C11.5176 4.54297 12.0898 4.72656 12.5039 5.09375C12.918 5.45703 13.1328 5.95898 13.1484 6.59961V9.51758C13.1484 10.0996 13.2227 10.5625 13.3711 10.9062V11H12.2344ZM10.4355 10.1738C10.7754 10.1738 11.0977 10.0859 11.4023 9.91016C11.707 9.73438 11.9277 9.50586 12.0645 9.22461V7.92383H11.2148C9.88672 7.92383 9.22266 8.3125 9.22266 9.08984C9.22266 9.42969 9.33594 9.69531 9.5625 9.88672C9.78906 10.0781 10.0801 10.1738 10.4355 10.1738ZM18.334 6.39453C18.334 6.09766 18.2207 5.86328 17.9941 5.69141C17.7676 5.51562 17.457 5.42773 17.0625 5.42773C16.6797 5.42773 16.3594 5.52734 16.1016 5.72656C15.8477 5.92578 15.7207 6.16016 15.7207 6.42969H14.6426C14.6426 5.87891 14.873 5.42773 15.334 5.07617C15.7949 4.72461 16.3711 4.54883 17.0625 4.54883C17.8047 4.54883 18.3828 4.70898 18.7969 5.0293C19.2109 5.3457 19.418 5.79883 19.418 6.38867C19.418 6.67383 19.332 6.93555 19.1602 7.17383C18.9883 7.41211 18.7441 7.60156 18.4277 7.74219C19.166 7.99219 19.5352 8.48438 19.5352 9.21875C19.5352 9.80078 19.3105 10.2617 18.8613 10.6016C18.4121 10.9414 17.8125 11.1113 17.0625 11.1113C16.332 11.1113 15.7285 10.9336 15.252 10.5781C14.7793 10.2188 14.543 9.73438 14.543 9.125H15.6211C15.6211 9.43359 15.7578 9.69922 16.0312 9.92188C16.3086 10.1406 16.6523 10.25 17.0625 10.25C17.4766 10.25 17.8105 10.1543 18.0645 9.96289C18.3184 9.77148 18.4453 9.52344 18.4453 9.21875C18.4453 8.86328 18.3379 8.60938 18.123 8.45703C17.9121 8.30078 17.582 8.22266 17.1328 8.22266H16.0488V7.30859H17.2266C17.9648 7.28906 18.334 6.98438 18.334 6.39453ZM24.5918 9.56445L26.748 4.66016H28.1016V11H27.0176V6.38867L24.9668 11H24.2168L22.125 6.28906V11H21.041V4.66016H22.4473L24.5918 9.56445ZM32.4785 11.1172C31.6191 11.1172 30.9199 10.8359 30.3809 10.2734C29.8418 9.70703 29.5723 8.95117 29.5723 8.00586V7.80664C29.5723 7.17773 29.6914 6.61719 29.9297 6.125C30.1719 5.62891 30.5078 5.24219 30.9375 4.96484C31.3711 4.68359 31.8398 4.54297 32.3438 4.54297C33.168 4.54297 33.8086 4.81445 34.2656 5.35742C34.7227 5.90039 34.9512 6.67773 34.9512 7.68945V8.14062H30.6562C30.6719 8.76562 30.8535 9.27148 31.2012 9.6582C31.5527 10.041 31.998 10.2324 32.5371 10.2324C32.9199 10.2324 33.2441 10.1543 33.5098 9.99805C33.7754 9.8418 34.0078 9.63477 34.207 9.37695L34.8691 9.89258C34.3379 10.709 33.541 11.1172 32.4785 11.1172ZM32.3438 5.43359C31.9062 5.43359 31.5391 5.59375 31.2422 5.91406C30.9453 6.23047 30.7617 6.67578 30.6914 7.25H33.8672V7.16797C33.8359 6.61719 33.6875 6.19141 33.4219 5.89062C33.1562 5.58594 32.7969 5.43359 32.3438 5.43359ZM41.5664 7.90039C41.5664 8.86523 41.3457 9.64258 40.9043 10.2324C40.4629 10.8223 39.8652 11.1172 39.1113 11.1172C38.3418 11.1172 37.7363 10.873 37.2949 10.3848V13.4375H36.2109V4.66016H37.2012L37.2539 5.36328C37.6953 4.81641 38.3086 4.54297 39.0938 4.54297C39.8555 4.54297 40.457 4.83008 40.8984 5.4043C41.3438 5.97852 41.5664 6.77734 41.5664 7.80078V7.90039ZM40.4824 7.77734C40.4824 7.0625 40.3301 6.49805 40.0254 6.08398C39.7207 5.66992 39.3027 5.46289 38.7715 5.46289C38.1152 5.46289 37.623 5.75391 37.2949 6.33594V9.36523C37.6191 9.94336 38.1152 10.2324 38.7832 10.2324C39.3027 10.2324 39.7148 10.0273 40.0195 9.61719C40.3281 9.20312 40.4824 8.58984 40.4824 7.77734ZM44.1328 6.8457H45.7793C46.498 6.85352 47.0664 7.04102 47.4844 7.4082C47.9023 7.77539 48.1113 8.27344 48.1113 8.90234C48.1113 9.53516 47.8965 10.043 47.4668 10.4258C47.0371 10.8086 46.459 11 45.7324 11H43.0488V4.66016H44.1328V6.8457ZM50.373 11H49.2832V4.66016H50.373V11ZM44.1328 7.73047V10.1152H45.7441C46.1504 10.1152 46.4648 10.0117 46.6875 9.80469C46.9102 9.59375 47.0215 9.30664 47.0215 8.94336C47.0215 8.5918 46.9121 8.30469 46.6934 8.08203C46.4785 7.85547 46.1758 7.73828 45.7852 7.73047H44.1328Z" fill="#414141"/>
</svg>
